<?xml version="1.0" encoding="utf-8"?>
<!-- Generator: Adobe Illustrator 24.0.2, SVG Export Plug-In . SVG Version: 6.00 Build 0)  -->
<svg version="1.1" id="Layer_1" xmlns="http://www.w3.org/2000/svg" xmlns:xlink="http://www.w3.org/1999/xlink" x="0px" y="0px"
	 viewBox="0 0 42 42" style="enable-background:new 0 0 42 42;" xml:space="preserve">
<metadata><?xpacket begin="﻿" id="W5M0MpCehiHzreSzNTczkc9d"?>
<x:xmpmeta xmlns:x="adobe:ns:meta/" x:xmptk="Adobe XMP Core 6.0-c006 79.164648, 2021/01/12-15:52:29        ">
   <rdf:RDF xmlns:rdf="http://www.w3.org/1999/02/22-rdf-syntax-ns#">
      <rdf:Description rdf:about=""
            xmlns:xmp="http://ns.adobe.com/xap/1.0/"
            xmlns:xmpMM="http://ns.adobe.com/xap/1.0/mm/"
            xmlns:stEvt="http://ns.adobe.com/xap/1.0/sType/ResourceEvent#"
            xmlns:xmpRights="http://ns.adobe.com/xap/1.0/rights/"
            xmlns:dc="http://purl.org/dc/elements/1.1/"
            xmlns:lr="http://ns.adobe.com/lightroom/1.0/">
         <xmp:MetadataDate>2021-08-31T17:52:14-05:00</xmp:MetadataDate>
         <xmpMM:InstanceID>xmp.iid:d8f0ed1d-becf-4523-a282-b42c2f45b12c</xmpMM:InstanceID>
         <xmpMM:DocumentID>xmp.did:efcfbcc4-7536-4a1a-8760-b3a180358a99</xmpMM:DocumentID>
         <xmpMM:OriginalDocumentID>xmp.did:efcfbcc4-7536-4a1a-8760-b3a180358a99</xmpMM:OriginalDocumentID>
         <xmpMM:History>
            <rdf:Seq>
               <rdf:li>
                  <rdf:Description>
                     <stEvt:action>saved</stEvt:action>
                     <stEvt:instanceID>xmp.iid:efcfbcc4-7536-4a1a-8760-b3a180358a99</stEvt:instanceID>
                     <stEvt:when>2021-04-27T13:41:29-05:00</stEvt:when>
                     <stEvt:softwareAgent>Adobe Bridge 2021 (Macintosh)</stEvt:softwareAgent>
                     <stEvt:changed>/metadata</stEvt:changed>
                  </rdf:Description>
               </rdf:li>
               <rdf:li>
                  <rdf:Description>
                     <stEvt:action>saved</stEvt:action>
                     <stEvt:instanceID>xmp.iid:d8f0ed1d-becf-4523-a282-b42c2f45b12c</stEvt:instanceID>
                     <stEvt:when>2021-08-31T17:52:14-05:00</stEvt:when>
                     <stEvt:softwareAgent>Adobe Bridge 2021 (Macintosh)</stEvt:softwareAgent>
                     <stEvt:changed>/metadata</stEvt:changed>
                  </rdf:Description>
               </rdf:li>
            </rdf:Seq>
         </xmpMM:History>
         <xmpRights:Marked>True</xmpRights:Marked>
         <dc:subject>
            <rdf:Bag>
               <rdf:li>OCI</rdf:li>
               <rdf:li>Data Management</rdf:li>
               <rdf:li>Database</rdf:li>
               <rdf:li>System</rdf:li>
               <rdf:li>DBS</rdf:li>
               <rdf:li>Data</rdf:li>
               <rdf:li>icon</rdf:li>
               <rdf:li>Cloud</rdf:li>
            </rdf:Bag>
         </dc:subject>
         <dc:rights>
            <rdf:Alt>
               <rdf:li xml:lang="x-default">Oracle All Rights Reserved</rdf:li>
            </rdf:Alt>
         </dc:rights>
         <dc:creator>
            <rdf:Seq>
               <rdf:li>Info Dev Digital Content Team</rdf:li>
            </rdf:Seq>
         </dc:creator>
         <lr:hierarchicalSubject>
            <rdf:Bag>
               <rdf:li>Data Management</rdf:li>
               <rdf:li>Database</rdf:li>
               <rdf:li>System</rdf:li>
               <rdf:li>Data</rdf:li>
               <rdf:li>icon</rdf:li>
               <rdf:li>Cloud</rdf:li>
            </rdf:Bag>
         </lr:hierarchicalSubject>
      </rdf:Description>
   </rdf:RDF>
</x:xmpmeta>
                                                                                                    
                                                                                                    
                                                                                                    
                                                                                                    
         
<?xpacket end="w"?></metadata>
<style type="text/css">
	.st0{fill:#FFFFFF;}
	.st1{fill:#2C5967;}
</style>
<g>
	<g>
		<g>
			<path class="st0" d="M29.66,41.5v-4.49h-9.72V26.92h-4.86v-4.67h-2.74v4.67H7.67v2.74h4.67V41.5H0.5V29.66h4.67v-2.74H0.5V15.08
				h11.84v4.67h2.74v-4.67h4.86v-2.74h-4.86V0.5h11.84v11.84h-4.49v2.74h4.49v4.67h2.74v-4.67H41.5v11.84h-4.67v2.74h4.67V41.5
				H29.66z M29.66,34.52v-4.86h4.67v-2.74h-4.67v-4.67h-2.74v4.67h-4.49v7.6H29.66z"/>
			<path class="st0" d="M26.42,1v10.84h-4.49v3.74h4.49v4.67h3.74v-4.67H41v10.84h-4.67v3.74H41V41H30.16v-4.49h-9.72V26.42h-4.86
				v-4.67h-3.74v4.67H7.17v3.74h4.67V41H1V30.16h4.67v-3.74H1V15.58h10.84v4.67h3.74v-4.67h4.86v-3.74h-4.86V1H26.42 M21.93,35.02
				h8.22v-4.86h4.67v-3.74h-4.67v-4.67h-3.74v4.67h-4.49V35.02 M27.42,0h-1H15.58h-1v1v10.84v1h1h3.86v1.74h-3.86h-1v1v3.67h-1.74
				v-3.67v-1h-1H1H0v1v10.84v1h1h3.67v1.74H1H0v1V41v1h1h10.84h1v-1V30.16v-1h-1H8.17v-1.74h3.67h1v-1v-3.67h1.74v3.67v1h1h3.86
				v9.09v1h1h8.72V41v1h1H41h1v-1V30.16v-1h-1h-3.67v-1.74H41h1v-1V15.58v-1h-1H30.16h-1v1v3.67h-1.74v-3.67v-1h-1h-3.49v-1.74h3.49
				h1v-1V1V0L27.42,0z M27.42,22.75h1.74v3.67v1h1h3.67v1.74h-3.67h-1v1v3.86h-6.22v-6.6h3.49h1v-1V22.75L27.42,22.75z"/>
		</g>
		<path class="st1" d="M41,26.42V15.58H30.16v4.67h-3.74v-4.67h-4.49v-3.74h4.49V1H15.58v10.84h4.86v3.74h-4.86v4.67h-3.74v-4.67H1
			v10.84h4.67v3.74H1V41h10.84V30.16H7.17v-3.74h4.67v-4.67h3.74v4.67h4.86v10.09h9.72V41H41V30.16h-4.67v-3.74H41z M17.07,2.5h7.85
			v7.85h-7.85V2.5z M10.35,39.5H2.5v-7.85h7.85V39.5z M10.35,24.93H2.5v-7.85h7.85V24.93z M31.65,17.07h7.85v7.85h-7.85V17.07z
			 M17.07,17.07h7.85v7.85h-7.85V17.07z M39.5,39.5h-7.85v-7.85h7.85V39.5z M34.83,30.16h-4.67v4.86h-8.22v-8.6h4.49v-4.67h3.74
			v4.67h4.67V30.16z"/>
	</g>
</g>
</svg>
