<svg id="Layer_1" data-name="Layer 1" xmlns="http://www.w3.org/2000/svg" viewBox="0 0 42.14 42.14"><title>Other - Heatwave-Service</title><metadata><?xpacket begin="﻿" id="W5M0MpCehiHzreSzNTczkc9d"?>
<x:xmpmeta xmlns:x="adobe:ns:meta/" x:xmptk="Adobe XMP Core 6.0-c006 79.164648, 2021/01/12-15:52:29        ">
   <rdf:RDF xmlns:rdf="http://www.w3.org/1999/02/22-rdf-syntax-ns#">
      <rdf:Description rdf:about=""
            xmlns:dc="http://purl.org/dc/elements/1.1/"
            xmlns:lr="http://ns.adobe.com/lightroom/1.0/"
            xmlns:xmp="http://ns.adobe.com/xap/1.0/"
            xmlns:xmpMM="http://ns.adobe.com/xap/1.0/mm/"
            xmlns:stEvt="http://ns.adobe.com/xap/1.0/sType/ResourceEvent#"
            xmlns:xmpRights="http://ns.adobe.com/xap/1.0/rights/">
         <dc:title>
            <rdf:Alt>
               <rdf:li xml:lang="x-default">Other - Heatwave-Service</rdf:li>
            </rdf:Alt>
         </dc:title>
         <dc:subject>
            <rdf:Bag>
               <rdf:li>icon</rdf:li>
            </rdf:Bag>
         </dc:subject>
         <dc:rights>
            <rdf:Alt>
               <rdf:li xml:lang="x-default">Oracle All Rights Reserved</rdf:li>
            </rdf:Alt>
         </dc:rights>
         <lr:hierarchicalSubject>
            <rdf:Bag>
               <rdf:li>icon</rdf:li>
            </rdf:Bag>
         </lr:hierarchicalSubject>
         <xmp:MetadataDate>2021-11-23T13:28:04-06:00</xmp:MetadataDate>
         <xmpMM:InstanceID>xmp.iid:cf6170a3-b6c7-4eea-92a5-431e242b980c</xmpMM:InstanceID>
         <xmpMM:DocumentID>xmp.did:c76abb1e-05e1-ef45-a435-2df1f50b776b</xmpMM:DocumentID>
         <xmpMM:OriginalDocumentID>xmp.did:c76abb1e-05e1-ef45-a435-2df1f50b776b</xmpMM:OriginalDocumentID>
         <xmpMM:History>
            <rdf:Seq>
               <rdf:li>
                  <rdf:Description>
                     <stEvt:action>saved</stEvt:action>
                     <stEvt:instanceID>xmp.iid:c76abb1e-05e1-ef45-a435-2df1f50b776b</stEvt:instanceID>
                     <stEvt:when>2021-11-22T15:44:57-06:00</stEvt:when>
                     <stEvt:softwareAgent>Adobe Bridge 2020 (Windows)</stEvt:softwareAgent>
                     <stEvt:changed>/metadata</stEvt:changed>
                  </rdf:Description>
               </rdf:li>
               <rdf:li>
                  <rdf:Description>
                     <stEvt:action>saved</stEvt:action>
                     <stEvt:instanceID>xmp.iid:cf6170a3-b6c7-4eea-92a5-431e242b980c</stEvt:instanceID>
                     <stEvt:when>2021-11-23T13:28:04-06:00</stEvt:when>
                     <stEvt:softwareAgent>Adobe Bridge 2021 (Macintosh)</stEvt:softwareAgent>
                     <stEvt:changed>/metadata</stEvt:changed>
                  </rdf:Description>
               </rdf:li>
            </rdf:Seq>
         </xmpMM:History>
         <xmpRights:Marked>True</xmpRights:Marked>
      </rdf:Description>
   </rdf:RDF>
</x:xmpmeta>
                                                                                                    
                                                                                                    
                                                                                                    
                                                                                                    
                                                                                                    
                                                                                                    
                                                                                                    
                                                                                                    
                                                                                                    
                                                                                                    
                                                                                                    
                                                                                                    
                                         
<?xpacket end="w"?></metadata>
<path d="M30.65,39.68l-1.77-1.77c-.42-.42-.84-.87-1.26-1.34-.7-.78-1.38-1.61-2-2.47l-1.89-2.62H15.6l-2.11-1.06v-2H11.12l-.4-.47a10.2,10.2,0,0,1-2.53-6.43H.54L.65,20.1a9.47,9.47,0,0,1,5.2-8,2.42,2.42,0,0,0,1.38-1.73,7.62,7.62,0,0,1,4.41-5.51,7.71,7.71,0,0,1,3.07-.64l.71,0h.24a2.25,2.25,0,0,0,1.59-.63,10.22,10.22,0,0,1,6.07-3,8.44,8.44,0,0,1,.87,0,9.28,9.28,0,0,1,8.36,5.17A2.42,2.42,0,0,0,34.22,7a9.57,9.57,0,0,1,3,1.22,9.75,9.75,0,0,1,3.22,13l-.08.15-2.49,4a8.35,8.35,0,0,1-1.19,1.46c-.25.25-.53.51-.73.68l-.21.17-.58-.18L35,27.17a.17.17,0,0,0-.16-.12.17.17,0,0,0-.11.05,2.9,2.9,0,0,1-4.08,0,.13.13,0,0,0-.22,0,2.37,2.37,0,0,1-.39.32l1.31.94.78.61a35.43,35.43,0,0,1,3,2.69l1.76,1.76,2,1.85-.75,2.25-3.3,3.3-2.24.75Z" fill="#fff"/><path d="M24.19,1A8.79,8.79,0,0,1,32.1,5.9a3,3,0,0,0,2,1.56,9.17,9.17,0,0,1,2.83,1.15,9.3,9.3,0,0,1,3,12.3l-.08.15L37.42,25a6.94,6.94,0,0,1-1.11,1.37c-.24.24-.51.49-.7.66L35.42,27a.67.67,0,0,0-1.08-.22,2.39,2.39,0,0,1-3.37,0,.66.66,0,0,0-.47-.21.69.69,0,0,0-.47.2,2.35,2.35,0,0,1-1,.6l2,1.43.77.59a32.8,32.8,0,0,1,3,2.66l1.57,1.56.19.2,1.74,1.64-.62,1.83-3.13,3.14L32.69,41,31,39.32l-1.76-1.76c-.42-.42-.84-.86-1.25-1.32-.68-.76-1.35-1.58-2-2.44L24,31H15.72L14,30.11V28H11.35l-.26-.3a9.69,9.69,0,0,1-2.4-6.39c0-.07,0-.14,0-.21H1.08l.06-.92A9.05,9.05,0,0,1,6.06,12.5a2.91,2.91,0,0,0,1.66-2.09,7.11,7.11,0,0,1,7-5.74q.33,0,.66,0h.29a2.78,2.78,0,0,0,1.94-.77A9.72,9.72,0,0,1,23.37,1a7.5,7.5,0,0,1,.82,0m0-1c-.3,0-.61,0-.91,0a10.68,10.68,0,0,0-6.37,3.18,1.77,1.77,0,0,1-1.25.49h-.19l-.76,0a8.1,8.1,0,0,0-8,6.55,1.92,1.92,0,0,1-1.1,1.38A10,10,0,0,0,.15,20.06L.08,21,0,22.06H7.72a10.65,10.65,0,0,0,2.62,6.26l.26.29.3.35H13v1.77l.55.28,1.73.86.21.11h8l1.74,2.41c.67.89,1.36,1.73,2.06,2.52.42.47.85.93,1.28,1.36L30.29,40,32,41.71l.44.43L33,42l1.83-.61.23-.08.16-.17L38.37,38l.17-.17.07-.22.62-1.84.2-.6L39,34.69l-1.73-1.64-.17-.18-1.57-1.56a34.73,34.73,0,0,0-3.09-2.73l-.21-.17a3.55,3.55,0,0,0,.46,0,3.34,3.34,0,0,0,2-.67h0l.43.14.1,0,.09,0,.53.17.42-.36c.19-.16.45-.4.76-.7a8.47,8.47,0,0,0,1.26-1.55l2.48-3.95,0,0v0l.08-.15A10.26,10.26,0,0,0,37.47,7.76a10.07,10.07,0,0,0-3.14-1.27,1.92,1.92,0,0,1-1.33-1A9.79,9.79,0,0,0,24.19,0Z" fill="#fff"/><polygon points="36.45 36.03 36.45 36.03 33.31 39.17 33.31 39.17 32.08 40.39 32.69 41 34.53 40.39 37.66 37.25 38.28 35.42 37.67 34.81 36.45 36.03" fill="#2c5967"/><path d="M31.78,29.36,31,28.77l-2-1.43a2.39,2.39,0,0,0,1-.6.66.66,0,0,1,.93,0,2.39,2.39,0,0,0,3.37,0,.67.67,0,0,1,.93,0,1.81,1.81,0,0,0,.34.28A14.08,14.08,0,0,0,37,25.71h0a.63.63,0,0,1-.46-.2,2.38,2.38,0,0,0-3.37,0,.68.68,0,0,1-.94,0,2.37,2.37,0,0,0-3.36,0,.65.65,0,0,1-.36.18A11.33,11.33,0,0,1,27.06,28l2.75,2,.18.13a33.13,33.13,0,0,1,3.57,3.08l.54.54-1.48,1.48L31,36.88l-.54-.54-.4-.4a33.65,33.65,0,0,1-2.67-3.16L25.75,30.5l-.9-1.25H14v.86l1.73.87H24l2,2.82c.64.86,1.31,1.68,2,2.44.41.46.83.9,1.25,1.32L31,39.32l5.54-5.54-.19-.2L34.78,32A32.8,32.8,0,0,0,31.78,29.36Z" fill="#2c5967"/><path d="M34.24,13.35a.65.65,0,0,1-.91,0h0a2.34,2.34,0,0,0-1.68-.69h0a2.33,2.33,0,0,0-1.69.7.66.66,0,0,1-.46.19h0a.68.68,0,0,1-.47-.19,2.38,2.38,0,0,0-3.18-.17A10.31,10.31,0,0,1,27,14.46a.64.64,0,0,1,.77.11,2.38,2.38,0,0,0,1.69.7h0a2.38,2.38,0,0,0,1.68-.71.68.68,0,0,1,.47-.19h0a.67.67,0,0,1,.45.18h0a2.38,2.38,0,0,0,3.36,0,.66.66,0,0,1,.94,0,2.35,2.35,0,0,0,1.71.69A6.06,6.06,0,0,0,37.24,13,2.38,2.38,0,0,0,34.24,13.35Z" fill="#2c5967"/><path d="M7.57,19.33H3A7.74,7.74,0,0,1,7,14a4.62,4.62,0,0,0,2.41-3.21,5.39,5.39,0,0,1,3.12-3.9,5.48,5.48,0,0,1,2.68-.44A4.5,4.5,0,0,0,19,5,7.12,7.12,0,0,1,30.56,6.67a4.69,4.69,0,0,0,3.2,2.48,7.13,7.13,0,0,1,2.32,1,7.35,7.35,0,0,1,2.78,9.2,2.36,2.36,0,0,0-1.37-.42h0a2.37,2.37,0,0,0-1.7.7.66.66,0,0,1-.46.19h0a.68.68,0,0,1-.47-.19,2.38,2.38,0,0,0-3.37,0,.65.65,0,0,1-.93,0,2.38,2.38,0,0,0-1.43-.69,10.4,10.4,0,0,1,.25,1.94,2.37,2.37,0,0,0,3.33,0,.65.65,0,0,1,.93,0,2.38,2.38,0,0,0,1.69.7h0A2.34,2.34,0,0,0,37,20.8a.67.67,0,0,1,.47-.19h0a.69.69,0,0,1,.48.19l.25.26H39.9l.25-.46A9.08,9.08,0,0,0,37,8.65a8.89,8.89,0,0,0-2.87-1.18,3,3,0,0,1-2-1.58A8.84,8.84,0,0,0,17.71,3.83a2.81,2.81,0,0,1-2.34.87,7,7,0,0,0-3.53.57,7.12,7.12,0,0,0-4.12,5.14,2.94,2.94,0,0,1-1.52,2,9.41,9.41,0,0,0-5.05,7.69l-.07.93H7.4A10.91,10.91,0,0,1,7.57,19.33Z" fill="#2c5967"/><path d="M28.1,21.27a9.71,9.71,0,1,0-17,6.39l.26.3H25.44l.26-.3A9.69,9.69,0,0,0,28.1,21.27Zm-16,.65V20.19H10.49a7.94,7.94,0,0,1,1.75-4l1.18,1.18.61-.61.61-.61L13.47,15a7.93,7.93,0,0,1,4.06-1.66V15h1.73V13.34a7.89,7.89,0,0,1,4,1.64l-1.18,1.18.61.61.61.61,1.2-1.2a8,8,0,0,1,1.77,4H24.43v1.73h1.92a8,8,0,0,1-1.7,4.31H12.14a8,8,0,0,1-1.7-4.31ZM24.7,14.79Z" fill="#2c5967"/><path d="M17.89,19.62a1.82,1.82,0,0,0-.81.53,1.7,1.7,0,0,0-.4,1.26,1.62,1.62,0,0,0,.6,1.17,1.68,1.68,0,0,0,1.11.42h.14a1.74,1.74,0,0,0,1.18-.6A1.63,1.63,0,0,0,20,21.8v0l1.61-3.75h0l-3.78,1.55Z" fill="#2c5967"/></svg>