<svg id="Layer_1" data-name="Layer 1" xmlns="http://www.w3.org/2000/svg" viewBox="0 0 29.77 42"><title>Other - Technology - Database-Pluggable</title><metadata><?xpacket begin="﻿" id="W5M0MpCehiHzreSzNTczkc9d"?>
<x:xmpmeta xmlns:x="adobe:ns:meta/" x:xmptk="Adobe XMP Core 6.0-c006 79.164648, 2021/01/12-15:52:29        ">
   <rdf:RDF xmlns:rdf="http://www.w3.org/1999/02/22-rdf-syntax-ns#">
      <rdf:Description rdf:about=""
            xmlns:dc="http://purl.org/dc/elements/1.1/"
            xmlns:lr="http://ns.adobe.com/lightroom/1.0/"
            xmlns:xmp="http://ns.adobe.com/xap/1.0/"
            xmlns:xmpMM="http://ns.adobe.com/xap/1.0/mm/"
            xmlns:stEvt="http://ns.adobe.com/xap/1.0/sType/ResourceEvent#"
            xmlns:xmpRights="http://ns.adobe.com/xap/1.0/rights/">
         <dc:title>
            <rdf:Alt>
               <rdf:li xml:lang="x-default">Other - Technology - Database-Pluggable</rdf:li>
            </rdf:Alt>
         </dc:title>
         <dc:subject>
            <rdf:Bag>
               <rdf:li>icon</rdf:li>
               <rdf:li>database</rdf:li>
               <rdf:li>data</rdf:li>
               <rdf:li>technology</rdf:li>
            </rdf:Bag>
         </dc:subject>
         <dc:rights>
            <rdf:Alt>
               <rdf:li xml:lang="x-default">Oracle All Rights Reserved</rdf:li>
            </rdf:Alt>
         </dc:rights>
         <lr:hierarchicalSubject>
            <rdf:Bag>
               <rdf:li>icon</rdf:li>
               <rdf:li>database</rdf:li>
               <rdf:li>data</rdf:li>
               <rdf:li>technology</rdf:li>
            </rdf:Bag>
         </lr:hierarchicalSubject>
         <xmp:MetadataDate>2021-11-23T13:28:07-06:00</xmp:MetadataDate>
         <xmpMM:InstanceID>xmp.iid:ca487047-2f1b-43e2-a7ad-0aa526b23c29</xmpMM:InstanceID>
         <xmpMM:DocumentID>xmp.did:01fc01db-749d-3141-9cfa-2a1c7a2507b7</xmpMM:DocumentID>
         <xmpMM:OriginalDocumentID>xmp.did:01fc01db-749d-3141-9cfa-2a1c7a2507b7</xmpMM:OriginalDocumentID>
         <xmpMM:History>
            <rdf:Seq>
               <rdf:li>
                  <rdf:Description>
                     <stEvt:action>saved</stEvt:action>
                     <stEvt:instanceID>xmp.iid:01fc01db-749d-3141-9cfa-2a1c7a2507b7</stEvt:instanceID>
                     <stEvt:when>2021-11-22T15:45:01-06:00</stEvt:when>
                     <stEvt:softwareAgent>Adobe Bridge 2020 (Windows)</stEvt:softwareAgent>
                     <stEvt:changed>/metadata</stEvt:changed>
                  </rdf:Description>
               </rdf:li>
               <rdf:li>
                  <rdf:Description>
                     <stEvt:action>saved</stEvt:action>
                     <stEvt:instanceID>xmp.iid:ca487047-2f1b-43e2-a7ad-0aa526b23c29</stEvt:instanceID>
                     <stEvt:when>2021-11-23T13:28:07-06:00</stEvt:when>
                     <stEvt:softwareAgent>Adobe Bridge 2021 (Macintosh)</stEvt:softwareAgent>
                     <stEvt:changed>/metadata</stEvt:changed>
                  </rdf:Description>
               </rdf:li>
            </rdf:Seq>
         </xmpMM:History>
         <xmpRights:Marked>True</xmpRights:Marked>
      </rdf:Description>
   </rdf:RDF>
</x:xmpmeta>
                                                                                                    
                                                                                                    
                                                                                                    
                                                                                                    
                                                                                                    
                                                                                                    
                                                                                                    
                                                                                                    
                                                                                                    
                                                                                                    
 
<?xpacket end="w"?></metadata>
<path d="M10.18,41.5a2.62,2.62,0,0,1-2.62-2.62V32C2.87,31.3.5,30,.5,28V5.23h0s0,0,0-.08C.5.72,12.48.5,14.88.5S29.27.72,29.27,5.15v.14h0a.41.41,0,0,1,0,.09V28c0,1.93-2.38,3.28-7.06,4v6.85a2.62,2.62,0,0,1-2.62,2.62Z" fill="#fff"/><path d="M14.88,1C20,1,28.77,1.87,28.77,5.15c0,0,0,.08,0,.13s0,.07,0,.1V28c0,2-3.31,3-7.06,3.58v7.28A2.12,2.12,0,0,1,19.59,41H10.18a2.12,2.12,0,0,1-2.12-2.12V31.6C4.31,31.06,1,30,1,28V5.38s0-.07,0-.1,0-.09,0-.13C1,1.87,9.73,1,14.88,1m0-1C11.39,0,0,.37,0,5.15a.49.49,0,0,0,0,.12.41.41,0,0,0,0,.11V28c0,2.18,2.31,3.64,7.06,4.44v6.42A3.12,3.12,0,0,0,10.18,42h9.41a3.12,3.12,0,0,0,3.12-3.12V32.46c4.75-.8,7.06-2.26,7.06-4.44V5.38s0-.07,0-.11,0-.08,0-.12C29.77.37,18.37,0,14.88,0Z" fill="#fff"/><rect x="11.35" y="35.82" width="2.82" height="1.88" fill="#2c5967"/><rect x="15.59" y="35.82" width="2.82" height="1.88" fill="#2c5967"/><path d="M28.77,5.15C28.77,1.87,20,1,14.88,1S1,1.87,1,5.15c0,0,0,.08,0,.13s0,.07,0,.1V28c0,2,3.31,3,7.06,3.58v7.28A2.12,2.12,0,0,0,10.18,41h9.41a2.12,2.12,0,0,0,2.12-2.12V31.6c3.75-.54,7.06-1.61,7.06-3.58V5.38s0-.07,0-.1S28.77,5.19,28.77,5.15ZM26.88,20.44c-.27.51-3.67,2.19-12,2.19S3.16,21,2.88,20.44V15.15c2.86,1.4,8.33,1.83,12,1.83s9.15-.43,12-1.83Zm0-7.53c-.27.51-3.67,2.19-12,2.19s-11.72-1.68-12-2.19V7.42c2.86,1.43,8.33,1.87,12,1.87s9.15-.44,12-1.87Zm-12-10c7.26,0,11.62,1.46,12,2.27-.38.81-4.74,2.26-12,2.26S3.27,6,2.89,5.15C3.27,4.34,7.62,2.88,14.88,2.88Zm4.94,36a.23.23,0,0,1-.23.24H10.18a.24.24,0,0,1-.24-.24V31.82c1.75.17,3.49.24,4.94.24s3.2-.07,4.94-.24Zm-4.94-8.7c-8.32,0-11.72-1.69-12-2.19V22.68c2.86,1.4,8.33,1.83,12,1.83s9.15-.43,12-1.83V28C26.61,28.49,23.21,30.18,14.88,30.18Z" fill="#2c5967"/><path d="M14.88,13.22a40.47,40.47,0,0,0,9.38-1c.44-.11.84-.22,1.21-.34v-2a33.14,33.14,0,0,1-10.59,1.42Z" fill="#2c5967"/><path d="M14.88,20.76a40.47,40.47,0,0,0,9.38-1c.44-.11.84-.22,1.21-.34v-2a32.78,32.78,0,0,1-10.59,1.43Z" fill="#2c5967"/><path d="M14.88,28.28a40.47,40.47,0,0,0,9.38-1c.44-.11.84-.22,1.21-.34V25a33.14,33.14,0,0,1-10.59,1.42Z" fill="#2c5967"/></svg>