<?xml version="1.0" encoding="UTF-8"?>
<!DOCTYPE svg PUBLIC "-//W3C//DTD SVG 1.1//EN" "http://www.w3.org/Graphics/SVG/1.1/DTD/svg11.dtd">
<!-- Creator: CorelDRAW X7 -->
<svg xmlns="http://www.w3.org/2000/svg" xml:space="preserve" width="200mm" height="200mm" version="1.1" style="shape-rendering:geometricPrecision; text-rendering:geometricPrecision; image-rendering:optimizeQuality; fill-rule:evenodd; clip-rule:evenodd"
viewBox="0 0 20000 20000"
 xmlns:xlink="http://www.w3.org/1999/xlink">
 <defs>
  <style type="text/css">
   <![CDATA[
    .fil0 {fill:#005F7F}
   ]]>
  </style>
 </defs>
 <g id="Layer_x0020_1">
  <metadata id="CorelCorpID_0Corel-Layer"/>
  <g id="_2663363005952">
   <path class="fil0" d="M8501 409c0,479 154,659 517,1019 290,287 520,517 808,805 395,396 1200,1292 1593,1555 -463,691 -4102,3854 -4570,4796 -898,1807 841,2937 2170,4283 1083,1097 2386,964 3456,-116l3934 -3896c844,565 2501,2851 3302,2917 143,-214 230,-323 230,-691l0 -9520c0,-887 -419,-1305 -1305,-1305l-9444 0c-330,0 -416,89 -691,153z"/>
   <path class="fil0" d="M286 7550l0 8983c0,1196 918,2470 2045,3022 327,160 886,356 1333,356l8983 0c1708,0 2965,-1318 3371,-2618 351,-1122 161,-4384 161,-5905 -308,207 -1437,1404 -1862,1824 -289,285 -438,277 -448,780 -24,1213 484,3615 -1375,3615l-8599 0c-680,0 -1306,-626 -1306,-1305l0 -8599c0,-1819 2304,-1376 3538,-1376 631,0 658,-248 1434,-1023 335,-335 1020,-947 1247,-1286 -1475,0 -4779,-171 -5846,142 -1345,395 -2676,1678 -2676,3390z"/>
  </g>
 </g>
</svg>
