<svg xmlns="http://www.w3.org/2000/svg" viewBox="0 0 285.99998 270.29603"><defs><style>.a{fill:none;}.a,.b{stroke:#3d4752;stroke-miterlimit:10;stroke-width:3px;}.b{fill:#fff;}</style></defs><title>featured</title><polyline class="a" points="146.676 91.307 146.676 82.111 146.67 58.557"/><line class="a" x1="153.67005" y1="66.26379" x2="139.67005" y2="66.26379"/><line class="a" x1="45.20031" y1="66.26379" x2="31.20031" y2="66.26379"/><line class="a" x1="211.11163" y1="28.17576" x2="183.37032" y2="28.17576"/><line class="a" x1="191.07738" y1="21.17576" x2="191.07738" y2="35.17576"/><polyline class="a" points="247.8 42.245 247.8 51.441 247.806 91.307"/><line class="a" x1="240.80579" y1="83.59981" x2="254.80579" y2="83.59981"/><path class="a" d="M133.44578,186.09114V162.09048a8,8,0,0,0-8-8H46.20029a8,8,0,0,1-8-8l0-87.53374"/><polyline class="a" points="126.446 186.091 133.446 172.091 140.446 186.091"/><polyline class="a" points="163.237 131.437 163.237 140.632 163.231 186.091"/><line class="a" x1="156.23084" y1="178.38408" x2="170.23084" y2="178.38408"/><polyline class="a" points="230.054 186.091 230.054 176.896 230.06 131.437"/><line class="a" x1="237.06046" y1="139.14403" x2="223.06046" y2="139.14403"/><polyline class="a" points="170.237 131.437 163.237 145.437 156.237 131.437"/><polyline class="a" points="223.06 186.128 230.061 172.128 237.06 186.128"/><polyline class="a" points="139.676 90.6 146.676 76.6 153.676 90.6"/><polyline class="a" points="254.8 42.245 247.8 56.245 240.8 42.245"/><polyline class="a" points="211.241 35.176 197.241 28.176 211.241 21.176"/><rect class="b" x="109.97584" y="186.12783" width="138.74135" height="82.6682" rx="3" ry="3"/><rect class="b" x="1.5" y="186.12783" width="73.40058" height="40.74549" rx="3" ry="3"/><rect class="b" x="1.5" y="1.5" width="73.40058" height="57.05673" rx="3" ry="3"/><rect class="b" x="109.96974" y="1.5" width="73.40058" height="57.05673" rx="3" ry="3"/><rect class="b" x="211.0994" y="1.5" width="73.40058" height="40.74549" rx="3" ry="3"/><rect class="b" x="211.0994" y="91.30687" width="73.40058" height="40.13011" rx="3" ry="3"/><rect class="b" x="109.96974" y="91.30687" width="73.40058" height="40.13011" rx="3" ry="3"/><line class="a" x1="109.96975" y1="203.12783" x2="248.71719" y2="203.12783"/><line class="a" x1="1.5" y1="203.12783" x2="74.90083" y2="203.12783"/><line class="a" x1="211.09854" y1="108.30687" x2="284.49998" y2="108.30687"/><line class="a" x1="109.97584" y1="108.30687" x2="183.37041" y2="108.30687"/><line class="a" x1="211.24093" y1="18.23278" x2="284.49998" y2="18.13979"/><line class="a" x1="109.96978" y1="18.36133" x2="183.36986" y2="18.26815"/><line class="a" x1="1.5" y1="18.49901" x2="74.90155" y2="18.40584"/><circle class="b" cx="133.4458" cy="168.09081" r="4.00033"/><circle class="b" cx="163.2369" cy="149.43731" r="4.00033"/><circle class="b" cx="230.06051" cy="168.1275" r="4.00033"/></svg>