<?xml version="1.0" encoding="utf-8"?>
<!-- Generator: Adobe Illustrator 19.1.0, SVG Export Plug-In . SVG Version: 6.00 Build 0)  -->
<svg version="1.1" id="Layer_1" xmlns="http://www.w3.org/2000/svg" xmlns:xlink="http://www.w3.org/1999/xlink" x="0px" y="0px"
	 viewBox="0 0 92 92" enable-background="new 0 0 92 92" xml:space="preserve">
<g>
	<path fill="#3998D5" d="M73.03,61.78c-1.53,0-2.84-1.16-2.98-2.72c-0.16-1.65,1.05-3.11,2.7-3.27C79.51,55.15,85,48.93,85,41.91
		c0-7.48-6-13.56-13.39-13.56c-0.65,0-1.31,0.05-1.97,0.15l-2.5,0.37l-0.8-2.39c-1.84-5.52-6.93-9.23-12.68-9.23
		c-1.23,0-2.46,0.17-3.65,0.52l-2.2,0.63l-1.19-1.95C44.17,12.41,39.91,10,35.24,10c-7.38,0-13.39,6.08-13.39,13.56
		c0,0.64,0.05,1.29,0.14,1.95l0.45,3.19l-3.22,0.22C12.37,29.4,7,35.22,7,42.19c0,7.02,5.5,13.11,12.26,13.58
		c1.65,0.12,2.9,1.55,2.78,3.2s-1.54,2.9-3.2,2.78C8.83,61.06,1,52.47,1,42.19c0-9.08,6.32-16.84,14.85-18.81
		C15.95,12.68,24.61,4,35.24,4c6.05,0,11.61,2.77,15.27,7.51c1.05-0.17,2.1-0.26,3.16-0.26c7.54,0,14.29,4.38,17.48,11.11
		c0.15,0,0.31-0.01,0.46-0.01C82.3,22.35,91,31.12,91,41.91c0,10.2-7.77,18.92-17.68,19.86C73.22,61.78,73.13,61.78,73.03,61.78z"/>
</g>
<path fill-rule="evenodd" clip-rule="evenodd" fill="#3998D5" d="M25.9,76V55.48c0.71,0.61,1.77,0.59,2.45-0.08l1.33-1.34v2.13
	c0,0.79,0.52,1.45,1.22,1.69V71h4V58.01h2.41c0.7,0,1.29-0.41,1.59-0.99V71h5V54.48c0.04-0.03,0.09-0.04,0.12-0.08l2.28-3.28
	c0.71-0.71,1.3-2.41,0.6-3.12c1,0,2.01-0.59,2.01-1.59V46H66.9v30H25.9L25.9,76z M52.9,51h-5v20h5V51L52.9,51z M61.9,51h-5v20h5V51
	L61.9,51z M29.68,53.63L29.68,53.63C29.45,53.58,29.33,53.53,29.68,53.63L29.68,53.63z"/>
<path fill-rule="evenodd" clip-rule="evenodd" fill="#3998D5" d="M28.93,43.5c0-3.02,2.45-5.47,5.47-5.47
	c3.02,0,5.47,2.45,5.47,5.47c0,3.02-2.45,5.47-5.47,5.47C31.38,48.97,28.93,46.52,28.93,43.5L28.93,43.5z M23.45,41.16
	c-0.86,0-1.56,0.7-1.56,1.56v1.56c0,0.86,0.7,1.56,1.56,1.56h2.22c0.21,0.77,0.51,1.5,0.9,2.17L25,49.58c-0.61,0.61-0.61,1.6,0,2.21
	l1.1,1.1c0.61,0.61,1.6,0.61,2.21,0l1.57-1.57c0.67,0.39,1.4,0.69,2.17,0.9v2.22c0,0.86,0.7,1.56,1.56,1.56h1.56
	c0.86,0,1.56-0.7,1.56-1.56v-2.22c0.77-0.21,1.49-0.51,2.16-0.9l1.57,1.57c0.61,0.61,1.6,0.61,2.21,0l1.11-1.11
	c0.61-0.61,0.61-1.6,0-2.21l-1.57-1.57c0.39-0.67,0.69-1.4,0.9-2.16h2.22c0.86,0,1.56-0.7,1.56-1.56v-1.56
	c0-0.86-0.7-1.56-1.56-1.56h-2.22c-0.21-0.77-0.51-1.5-0.9-2.17l1.57-1.57c0.61-0.61,0.61-1.6,0-2.21l-1.11-1.1
	c-0.61-0.61-1.6-0.61-2.21,0l-1.57,1.57c-0.67-0.39-1.4-0.69-2.17-0.9v-2.22c0-0.86-0.7-1.56-1.56-1.56h-1.56
	c-0.86,0-1.56,0.7-1.56,1.56v2.22c-0.77,0.21-1.49,0.51-2.17,0.9l-1.57-1.57c-0.61-0.61-1.6-0.61-2.21,0L25,35.21
	c-0.61,0.61-0.61,1.6,0,2.21l1.57,1.57c-0.39,0.67-0.69,1.4-0.9,2.16H23.45L23.45,41.16z M32.06,43.5c0,1.29,1.05,2.34,2.35,2.34
	c1.29,0,2.35-1.05,2.35-2.34c0-1.3-1.05-2.35-2.35-2.35C33.11,41.16,32.06,42.21,32.06,43.5L32.06,43.5z"/>
</svg>
