<?xml version="1.0" encoding="utf-8"?>
<!-- Generator: Adobe Illustrator 19.1.0, SVG Export Plug-In . SVG Version: 6.00 Build 0)  -->
<svg version="1.1" id="Layer_1" xmlns="http://www.w3.org/2000/svg" xmlns:xlink="http://www.w3.org/1999/xlink" x="0px" y="0px"
	 viewBox="0 0 92 92" enable-background="new 0 0 92 92" xml:space="preserve">
<g>
	<path fill="#3998D5" d="M73.03,61.78c-1.53,0-2.84-1.16-2.98-2.72c-0.16-1.65,1.05-3.11,2.7-3.27C79.51,55.15,85,48.93,85,41.91
		c0-7.48-6-13.56-13.39-13.56c-0.65,0-1.31,0.05-1.97,0.15l-2.5,0.37l-0.8-2.39c-1.84-5.52-6.93-9.23-12.68-9.23
		c-1.23,0-2.46,0.17-3.65,0.52l-2.2,0.63l-1.19-1.95C44.17,12.41,39.91,10,35.24,10c-7.38,0-13.39,6.08-13.39,13.56
		c0,0.64,0.05,1.29,0.14,1.95l0.45,3.19l-3.22,0.22C12.37,29.4,7,35.22,7,42.19c0,7.02,5.5,13.11,12.26,13.58
		c1.65,0.12,2.9,1.55,2.78,3.2s-1.54,2.9-3.2,2.78C8.83,61.06,1,52.47,1,42.19c0-9.08,6.32-16.84,14.85-18.81
		C15.95,12.68,24.61,4,35.24,4c6.05,0,11.61,2.77,15.27,7.51c1.05-0.17,2.1-0.26,3.16-0.26c7.54,0,14.29,4.38,17.48,11.11
		c0.15,0,0.31-0.01,0.46-0.01C82.3,22.35,91,31.12,91,41.91c0,10.2-7.77,18.92-17.68,19.86C73.22,61.78,73.13,61.78,73.03,61.78z"/>
</g>
<g>
	<path fill="#3998D5" d="M62,62H30c-1.1,0-2-0.9-2-2v-4c0-1.1,0.9-2,2-2h32c1.1,0,2,0.9,2,2v4C64,61.1,63.1,62,62,62z"/>
	<path fill="#3998D5" d="M62,52H30c-1.1,0-2-0.9-2-2v-4c0-1.1,0.9-2,2-2h32c1.1,0,2,0.9,2,2v4C64,51.1,63.1,52,62,52z"/>
	<g>
		<path fill="#3998D5" d="M46.56,75H43v4h3.51c0.3,0,0.58-0.22,0.86-0.28c0.27-0.06,0.51-0.25,0.72-0.39
			c0.21-0.14,0.37-0.37,0.5-0.6c0.12-0.23,0.19-0.56,0.19-0.92c0-0.71-0.2-1.14-0.6-1.44C47.76,75.07,47.23,75,46.56,75z"/>
		<path fill="#3998D5" d="M47.67,72.47c0.35-0.26,0.53-0.75,0.53-1.33c0-0.32-0.06-0.63-0.18-0.83c-0.12-0.21-0.27-0.39-0.47-0.5
			c-0.19-0.12-0.42-0.44-0.67-0.49C46.63,69.27,46.37,69,46.1,69H43v4h3.33C46.88,73,47.32,72.73,47.67,72.47z"/>
		<path fill="#3998D5" d="M62,64H30c-1.1,0-2,0.9-2,2v16c0,1.1,0.9,2,2,2h32c1.1,0,2-0.9,2-2V66C64,64.9,63.1,64,62,64z
			 M51.41,78.79c-0.27,0.51-0.64,0.93-1.1,1.26c-0.46,0.32-0.99,0.56-1.58,0.72S47.54,81,46.92,81H40V67h6.72
			c0.66,0,1.27,0.11,1.81,0.22c0.55,0.12,1.01,0.33,1.4,0.6c0.39,0.27,0.69,0.63,0.91,1.07c0.21,0.44,0.32,0.99,0.32,1.64
			c0,0.7-0.16,1.29-0.48,1.76c-0.32,0.47-0.79,0.85-1.41,1.15c0.86,0.25,1.5,0.68,1.92,1.3s0.63,1.36,0.63,2.23
			C51.82,77.67,51.69,78.28,51.41,78.79z"/>
	</g>
</g>
</svg>
