<?xml version="1.0" encoding="utf-8"?>

<!DOCTYPE svg PUBLIC "-//W3C//DTD SVG 1.1//EN" "http://www.w3.org/Graphics/SVG/1.1/DTD/svg11.dtd">
<svg version="1.1" id="Layer_1" xmlns="http://www.w3.org/2000/svg" xmlns:xlink="http://www.w3.org/1999/xlink" x="0px" y="0px"
	 width="92px" height="92px" viewBox="0 0 92 92" enable-background="new 0 0 92 92" xml:space="preserve">
<g>
	<path fill="#3998D5" d="M73,61.8c-1.5,0-2.8-1.2-3-2.7c-0.2-1.6,1.1-3.1,2.7-3.3C79.5,55.2,85,48.9,85,41.9c0-7.5-6-13.6-13.4-13.6
		c-0.7,0-1.3,0-2,0.1l-2.5,0.4l-0.8-2.4c-1.8-5.5-6.9-9.2-12.7-9.2c-1.2,0-2.5,0.2-3.7,0.5l-2.2,0.6l-1.2-2c-2.5-4-6.7-6.4-11.4-6.4
		c-7.4,0-13.4,6.1-13.4,13.6c0,0.6,0,1.3,0.1,1.9l0.5,3.2l-3.2,0.2C12.4,29.4,7,35.2,7,42.2s5.5,13.1,12.3,13.6
		c1.7,0.1,2.9,1.5,2.8,3.2s-1.5,2.9-3.2,2.8C8.8,61.1,1,52.5,1,42.2c0-9.1,6.3-16.8,14.9-18.8C15.9,12.7,24.6,4,35.2,4
		c6,0,11.6,2.8,15.3,7.5c1-0.2,2.1-0.3,3.2-0.3c7.5,0,14.3,4.4,17.5,11.1c0.2,0,0.3,0,0.5,0c10.7,0,19.4,8.8,19.4,19.6
		c0,10.2-7.8,18.9-17.7,19.9C73.2,61.8,73.1,61.8,73,61.8z"/>
</g>
<path fill="#3998D5" d="M34.12,60v-9c0-1.1,0.9-2,2-2h7c1.1,0,2,0.9,2,2v19c0,1.1-0.9,2-2,2h-7c-1.1,0-2-0.9-2-2v-8h5v2l4-3l-4-3v2
	H34.12z M66.12,84h-39c-1.1,0-2-0.9-2-2V62h7v10c0,1.1,0.9,2,2,2h11c1.1,0,2-0.9,2-2v-8.69l8.34,8.34L54.12,73l5,1l-1-5l-1.24,1.24
	L48.64,62h10.48v2l4-3l-4-3v2H48.53l8.29-8.29l1.3,1.29l1-5l-5,1l1.29,1.29l-8.29,8.3V49c0-1.1-0.9-2-2-2h-11c-1.1,0-2,0.9-2,2v11
	h-7V39c0-1.11,0.9-2,2-2h39c1.1,0,2,0.89,2,2v43C68.12,83.1,67.22,84,66.12,84z"/>
</svg>
