<?xml version="1.0" encoding="utf-8"?>

<!DOCTYPE svg PUBLIC "-//W3C//DTD SVG 1.1//EN" "http://www.w3.org/Graphics/SVG/1.1/DTD/svg11.dtd">
<svg version="1.1" id="Layer_1" xmlns="http://www.w3.org/2000/svg" xmlns:xlink="http://www.w3.org/1999/xlink" x="0px" y="0px"
	 width="92px" height="92px" viewBox="0 0 92 92" enable-background="new 0 0 92 92" xml:space="preserve">
<g>
	<path fill="#3998D5" d="M73.03,61.78c-1.53,0-2.84-1.16-2.98-2.72c-0.16-1.65,1.05-3.11,2.7-3.27C79.51,55.15,85,48.93,85,41.91
		c0-7.48-6-13.56-13.39-13.56c-0.65,0-1.31,0.05-1.97,0.15l-2.5,0.37l-0.8-2.39c-1.84-5.52-6.93-9.23-12.68-9.23
		c-1.23,0-2.46,0.17-3.65,0.52l-2.2,0.63l-1.19-1.95C44.17,12.41,39.91,10,35.24,10c-7.38,0-13.39,6.08-13.39,13.56
		c0,0.64,0.05,1.29,0.14,1.95l0.45,3.19l-3.22,0.22C12.37,29.4,7,35.22,7,42.19c0,7.02,5.5,13.11,12.26,13.58
		c1.65,0.12,2.9,1.55,2.78,3.2s-1.54,2.9-3.2,2.78C8.83,61.06,1,52.47,1,42.19c0-9.08,6.32-16.84,14.85-18.81
		C15.95,12.68,24.61,4,35.24,4c6.05,0,11.61,2.77,15.27,7.51c1.05-0.17,2.1-0.26,3.16-0.26c7.54,0,14.29,4.38,17.48,11.11
		c0.15,0,0.31-0.01,0.46-0.01C82.3,22.35,91,31.12,91,41.91c0,10.2-7.77,18.92-17.68,19.86C73.22,61.78,73.13,61.78,73.03,61.78z"/>
</g>
<path fill="#3998D5" d="M58.16,36.64C52.58,36,47.24,36,47,36s-6.53,0-12.15,0.64c-9.78,1.13-9.86,3.13-9.86,3.17L25,78
	c0,0,0.12,2.18,9.85,3.35C40.43,81.99,45.76,82,46,82s6.53-0.01,12.16-0.65C67.93,80.22,68,78.04,68,78l0.01-38.19
	C68.01,39.77,67.89,37.77,58.16,36.64z M44,74h-8v-8h8V74z M44,60l-7.97-0.02L36,52h8V60z M56,74h-8v-8h8V74z M56,60h-8v-8h8V60z
	 M66,43c-0.73,1.13-7.02,3-19,3c-11.98,0-19.24-1.93-19.97-3.05l0,0C27.72,41.82,34.98,40,47,40S65.31,41.83,66,43L66,43z"/>
</svg>
