<?xml version="1.0" encoding="utf-8"?>

<!DOCTYPE svg PUBLIC "-//W3C//DTD SVG 1.1//EN" "http://www.w3.org/Graphics/SVG/1.1/DTD/svg11.dtd">
<svg version="1.1" id="Layer_1" xmlns="http://www.w3.org/2000/svg" xmlns:xlink="http://www.w3.org/1999/xlink" x="0px" y="0px"
	 width="92px" height="92px" viewBox="0 0 92 92" enable-background="new 0 0 92 92" xml:space="preserve">
<g>
	<path fill="#3998D5" d="M73.03,61.78c-1.53,0-2.84-1.16-2.98-2.72c-0.16-1.65,1.05-3.11,2.7-3.27C79.51,55.15,85,48.93,85,41.91
		c0-7.48-6-13.56-13.39-13.56c-0.65,0-1.31,0.05-1.97,0.15l-2.5,0.37l-0.8-2.39c-1.84-5.52-6.93-9.23-12.68-9.23
		c-1.23,0-2.46,0.17-3.65,0.52l-2.2,0.63l-1.19-1.95C44.17,12.41,39.91,10,35.24,10c-7.38,0-13.39,6.08-13.39,13.56
		c0,0.64,0.05,1.29,0.14,1.95l0.45,3.19l-3.22,0.22C12.37,29.4,7,35.22,7,42.19c0,7.02,5.5,13.11,12.26,13.58
		c1.65,0.12,2.9,1.55,2.78,3.2s-1.54,2.9-3.2,2.78C8.83,61.06,1,52.47,1,42.19c0-9.08,6.32-16.84,14.85-18.81
		C15.95,12.68,24.61,4,35.24,4c6.05,0,11.61,2.77,15.27,7.51c1.05-0.17,2.1-0.26,3.16-0.26c7.54,0,14.29,4.38,17.48,11.11
		c0.15,0,0.31-0.01,0.46-0.01C82.3,22.35,91,31.12,91,41.91c0,10.2-7.77,18.92-17.68,19.86C73.22,61.78,73.13,61.78,73.03,61.78z"/>
</g>
<g>
	<path fill="#3998D5" d="M66.43,83.41c-0.78,0.78-2.04,0.78-2.81,0l-5.27-5.28c1.02-0.85,1.91-1.86,2.63-3l5.46,5.47
		C67.21,81.37,67.21,82.63,66.43,83.41z M40.03,68c0-6.07,4.7-10.99,10.5-10.99s10.5,4.92,10.5,10.99c0,6.07-4.7,10.99-10.5,10.99
		S40.03,74.07,40.03,68z M58.03,68c0-4.42-3.36-7.99-7.5-7.99s-7.5,3.58-7.5,7.99c0,0.9,0.15,1.76,0.4,2.56l1.83-2.32
		c-0.13-0.22-0.23-0.47-0.23-0.74c0-0.83,0.67-1.5,1.5-1.5s1.5,0.67,1.5,1.5c0,0.28-0.1,0.52-0.23,0.74l2.24,2.85
		c0.15-0.05,0.31-0.1,0.48-0.1s0.33,0.04,0.48,0.1l2.24-2.85c-0.13-0.22-0.23-0.47-0.23-0.74c0-0.83,0.67-1.5,1.5-1.5
		s1.5,0.67,1.5,1.5c0,0.83-0.67,1.5-1.5,1.5c-0.18,0-0.34-0.04-0.5-0.1l-2.24,2.84c0.14,0.22,0.24,0.47,0.24,0.76
		c0,0.83-0.67,1.5-1.5,1.5s-1.5-0.67-1.5-1.5c0-0.28,0.1-0.53,0.24-0.76l-2.24-2.84c-0.16,0.06-0.32,0.1-0.5,0.1s-0.34-0.04-0.5-0.1
		l-2.17,2.75c1.24,2.58,3.76,4.34,6.67,4.34C54.67,75.99,58.03,72.41,58.03,68z M50.53,54.01c-7.46,0-13.5,6.26-13.5,13.99
		s6.04,13.99,13.5,13.99c0.18,0,0.35-0.02,0.53-0.03c-3.37,2.85-6.03,4.03-6.03,4.03S22.8,76.16,25.21,44.22
		c12.65,0.85,19.82-8.2,19.82-8.2s7.17,9.04,19.82,8.2c0.56,7.41-0.22,13.61-1.72,18.79C61.19,57.75,56.29,54.01,50.53,54.01z"/>
</g>
</svg>
