<?xml version="1.0" encoding="utf-8"?>
<!-- Generator: Adobe Illustrator 19.1.0, SVG Export Plug-In . SVG Version: 6.00 Build 0)  -->
<svg version="1.1" id="Layer_1" xmlns="http://www.w3.org/2000/svg" xmlns:xlink="http://www.w3.org/1999/xlink" x="0px" y="0px"
	 viewBox="0 0 92 92" style="enable-background:new 0 0 92 92;" xml:space="preserve">
<style type="text/css">
	.st0{fill:#3998D5;}
	.st1{fill-rule:evenodd;clip-rule:evenodd;fill:#3998D5;}
</style>
<g>
	<path class="st0" d="M73,61.8c-1.5,0-2.8-1.2-3-2.7c-0.2-1.6,1.1-3.1,2.7-3.3C79.5,55.2,85,48.9,85,41.9c0-7.5-6-13.6-13.4-13.6
		c-0.7,0-1.3,0-2,0.1l-2.5,0.4l-0.8-2.4c-1.8-5.5-6.9-9.2-12.7-9.2c-1.2,0-2.5,0.2-3.7,0.5l-2.2,0.6l-1.2-2c-2.5-4-6.7-6.4-11.4-6.4
		c-7.4,0-13.4,6.1-13.4,13.6c0,0.6,0,1.3,0.1,1.9l0.5,3.2l-3.2,0.2C12.4,29.4,7,35.2,7,42.2c0,7,5.5,13.1,12.3,13.6
		c1.7,0.1,2.9,1.5,2.8,3.2s-1.5,2.9-3.2,2.8C8.8,61.1,1,52.5,1,42.2c0-9.1,6.3-16.8,14.9-18.8C15.9,12.7,24.6,4,35.2,4
		c6,0,11.6,2.8,15.3,7.5c1-0.2,2.1-0.3,3.2-0.3c7.5,0,14.3,4.4,17.5,11.1c0.2,0,0.3,0,0.5,0c10.7,0,19.4,8.8,19.4,19.6
		c0,10.2-7.8,18.9-17.7,19.9C73.2,61.8,73.1,61.8,73,61.8z"/>
</g>
<g>
	<path class="st1" d="M55.3,47v-9.2H41.8c-1,0-1.9,0.8-1.9,1.7v11.6h14.6c1,0,1.8,1,1.8,1.9v16.6h7.5c1,0,1.7-0.8,1.7-1.8V48.1h-9.2
		C55.8,48.1,55.3,47.6,55.3,47z"/>
	<path class="st1" d="M57.4,45v-7.3l8.3,8.3h-7.3C57.9,46,57.4,45.6,57.4,45z"/>
	<path class="st0" d="M51.3,56.2v14.5H42h-1.2L40,71.5l-5.2,4.7v-2.5v-3h-3h-2.1V56.2H51.3 M52.3,53.2H28.7c-1.1,0-2.1,0.9-2.1,2.1
		v16.3c0,1.1,0.9,2.1,2.1,2.1h3.1V83L42,73.7h10.3c1.1,0,2.1-0.9,2.1-2.1V55.3C54.3,54.2,53.4,53.2,52.3,53.2L52.3,53.2z"/>
	<path class="st1" d="M37.9,67.2v-7.4c0-0.4,0.4-0.7,0.8-0.4l5.7,3.7c0.3,0.2,0.3,0.7,0,0.9l-5.7,3.7C38.3,67.8,37.9,67.6,37.9,67.2
		z"/>
</g>
</svg>
