<?xml version="1.0" encoding="utf-8"?>
<!-- Generator: Adobe Illustrator 19.1.0, SVG Export Plug-In . SVG Version: 6.00 Build 0)  -->
<svg version="1.1" id="Layer_1" xmlns="http://www.w3.org/2000/svg" xmlns:xlink="http://www.w3.org/1999/xlink" x="0px" y="0px"
	 viewBox="0 0 92 92" style="enable-background:new 0 0 92 92;" xml:space="preserve">
<style type="text/css">
	.st0{fill:#3998D5;}
	.st1{fill-rule:evenodd;clip-rule:evenodd;fill:#3998D5;}
</style>
<g>
	<g>
		<path class="st0" d="M73,61.8c-1.5,0-2.8-1.2-3-2.7c-0.2-1.6,1.1-3.1,2.7-3.3C79.5,55.2,85,48.9,85,41.9c0-7.5-6-13.6-13.4-13.6
			c-0.7,0-1.3,0-2,0.1l-2.5,0.4l-0.8-2.4c-1.8-5.5-6.9-9.2-12.7-9.2c-1.2,0-2.5,0.2-3.7,0.5l-2.2,0.6l-1.2-2
			c-2.5-4-6.7-6.4-11.4-6.4c-7.4,0-13.4,6.1-13.4,13.6c0,0.6,0,1.3,0.1,1.9l0.5,3.2l-3.2,0.2C12.4,29.4,7,35.2,7,42.2
			c0,7,5.5,13.1,12.3,13.6c1.7,0.1,2.9,1.5,2.8,3.2s-1.5,2.9-3.2,2.8C8.8,61.1,1,52.5,1,42.2c0-9.1,6.3-16.8,14.9-18.8
			C15.9,12.7,24.6,4,35.2,4c6,0,11.6,2.8,15.3,7.5c1-0.2,2.1-0.3,3.2-0.3c7.5,0,14.3,4.4,17.5,11.1c0.2,0,0.3,0,0.5,0
			c10.7,0,19.4,8.8,19.4,19.6c0,10.2-7.8,18.9-17.7,19.9C73.2,61.8,73.1,61.8,73,61.8z"/>
	</g>
	<g>
		<path class="st1" d="M65.5,63.4L55,59.2v-4.8h12v9H65.5L65.5,63.4z M55,45.4h12v7H55V45.4L55,45.4z M45.9,56.7L41,58.6v-4.2h12v4
			l-4.4-1.7C47.3,56,45.9,56.7,45.9,56.7L45.9,56.7z M41,45.4h12v7H41V45.4L41,45.4z M41,36.4h12v7H41V36.4L41,36.4z M27.1,63.4v-9
			h12v5l-10.4,4H27.1L27.1,63.4z M27.1,45.4h12v7h-12V45.4L27.1,45.4z"/>
		<path class="st1" d="M66.4,73.3c0,0-2.3,3.1-3.5,5.4c0,0,0,0,0,0c0,2.9-6.6,5.3-15,5.5V58.7c0.2,0,0.3,0.1,0.5,0.2l21.4,8.5
			C69.9,67.4,69.1,70.4,66.4,73.3L66.4,73.3z M46,84.3c-8.3-0.2-15-2.6-15-5.5c0,0-1.1-2.4-2-3.5c-0.9-1.1-4.8-6.1-5-8L46,58.9V84.3
			L46,84.3z"/>
	</g>
</g>
</svg>
