<?xml version="1.0" encoding="utf-8"?>
<!-- Generator: Adobe Illustrator 21.0.2, SVG Export Plug-In . SVG Version: 6.00 Build 0)  -->
<svg version="1.1" id="Layer_1" xmlns="http://www.w3.org/2000/svg" xmlns:xlink="http://www.w3.org/1999/xlink" x="0px" y="0px"
	 viewBox="0 0 92 92" style="enable-background:new 0 0 92 92;" xml:space="preserve">
<style type="text/css">
	.st0{fill:#3998D5;}
	.st1{fill-rule:evenodd;clip-rule:evenodd;fill:#3998D5;}
</style>
<g>
	<path class="st0" d="M73,61.8c-1.5,0-2.8-1.2-3-2.7c-0.2-1.6,1.1-3.1,2.7-3.3C79.5,55.2,85,48.9,85,41.9c0-7.5-6-13.6-13.4-13.6
		c-0.7,0-1.3,0-2,0.1l-2.5,0.4l-0.8-2.4c-1.8-5.5-6.9-9.2-12.7-9.2c-1.2,0-2.5,0.2-3.7,0.5l-2.2,0.6l-1.2-2c-2.5-4-6.7-6.4-11.4-6.4
		c-7.4,0-13.4,6.1-13.4,13.6c0,0.6,0,1.3,0.1,1.9l0.5,3.2l-3.2,0.2C12.4,29.4,7,35.2,7,42.2c0,7,5.5,13.1,12.3,13.6
		c1.7,0.1,2.9,1.5,2.8,3.2s-1.5,2.9-3.2,2.8C8.8,61.1,1,52.5,1,42.2c0-9.1,6.3-16.8,14.9-18.8C15.9,12.7,24.6,4,35.2,4
		c6,0,11.6,2.8,15.3,7.5c1-0.2,2.1-0.3,3.2-0.3c7.5,0,14.3,4.4,17.5,11.1c0.2,0,0.3,0,0.5,0c10.7,0,19.4,8.8,19.4,19.6
		c0,10.2-7.8,18.9-17.7,19.9C73.2,61.8,73.1,61.8,73,61.8z"/>
</g>
<g>
	<path class="st1" d="M67.1,76.1h-2.7c0-0.2-0.1-0.3-0.2-0.5c-0.7-0.7-2.5-2.5-4.6-4.5h7.5c0.6,0,1,0.4,1,1v3
		C68.1,75.6,67.7,76.1,67.1,76.1L67.1,76.1z M67.1,70.1h-8.6c-1.7-1.7-3.6-3.5-5.1-5h13.7c0.6,0,1,0.4,1,1v3
		C68.1,69.7,67.7,70.1,67.1,70.1L67.1,70.1z M67.1,64.1H52.4c-0.7-0.7-1.3-1.2-1.7-1.6c-0.3-0.3-1-0.3-1.5-0.2v-2.2c0-0.6,0.4-1,1-1
		h17c0.6,0,1,0.4,1,1v3C68.1,63.7,67.7,64.1,67.1,64.1L67.1,64.1z M67.1,58.1h-17c-0.6,0-1-0.4-1-1v-3c0-0.6,0.4-1,1-1h17
		c0.6,0,1,0.4,1,1v3C68.1,57.7,67.7,58.1,67.1,58.1L67.1,58.1z M25.2,68.1c-0.6,0-1-0.4-1-1v-3c0-0.6,0.4-1,1-1h16.7
		c-1.2,1.2-3.2,3-5.2,5H25.2L25.2,68.1z M25.2,69.1h10.5c-1.9,1.9-3.8,3.7-5.1,5h-5.4c-0.6,0-1-0.4-1-1v-3
		C24.2,69.6,24.7,69.1,25.2,69.1L25.2,69.1z M25.2,75.1h4.4c-0.2,0.2-0.4,0.4-0.5,0.5c-0.3,0.3-0.3,0.7,0,1c0.6,0.6,2,2,3.7,3.5
		h-7.6c-0.6,0-1-0.4-1-1v-3C24.2,75.5,24.7,75.1,25.2,75.1L25.2,75.1z M25.2,81.1h8.7c1.9,1.7,3.9,3.5,5.6,5H25.2c-0.6,0-1-0.4-1-1
		v-3C24.2,81.5,24.7,81.1,25.2,81.1L25.2,81.1z"/>
	<path class="st0" d="M42.4,85.9c-2.3-2-8.4-7.7-10-9.4c-0.3-0.3-0.3-0.6,0-0.8c1.7-1.6,7.6-7.2,10-9.3c0.5-0.4,0.8-0.2,0.8,0.4
		c0,3.2,0,15.3,0,18.6C43.2,86,42.8,86.3,42.4,85.9L42.4,85.9z M52.1,79.1h-10c-0.6,0-1-0.4-1-1v-4c0-0.6,0.4-1,1-1h10
		c0.6,0,1,0.4,1,1v4C53.1,78.6,52.7,79.1,52.1,79.1L52.1,79.1z M60.9,76.5c-1.6,1.6-7.7,7.4-10,9.4c-0.4,0.4-0.8,0.2-0.8-0.5
		c0-3.3,0-15.4,0-18.6c0-0.7,0.3-0.9,0.8-0.4c2.3,2.1,8.3,7.8,10,9.3C61.2,75.9,61.2,76.2,60.9,76.5L60.9,76.5z"/>
	<path class="st1" d="M48.2,51.2c-0.6,0-1,0.4-1,1v1h-7c-0.6,0-1-0.4-1-1v-3c0-0.6,0.4-1,1-1h17c0.6,0,1,0.4,1,1v2H48.2L48.2,51.2z
		 M57.1,47.2h-17c-0.6,0-1-0.4-1-1v-3c0-0.6,0.4-1,1-1h17c0.6,0,1,0.4,1,1v3C58.1,46.7,57.7,47.2,57.1,47.2L57.1,47.2z M57.1,41.2
		h-17c-0.6,0-1-0.4-1-1v-3c0-0.6,0.4-1,1-1h17c0.6,0,1,0.4,1,1v3C58.1,40.7,57.7,41.2,57.1,41.2L57.1,41.2z M40.2,54.1h7v5h-7
		c-0.6,0-1-0.4-1-1v-3C39.2,54.6,39.6,54.1,40.2,54.1L40.2,54.1z"/>
</g>
</svg>
