<?xml version="1.0" encoding="utf-8"?>

<!DOCTYPE svg PUBLIC "-//W3C//DTD SVG 1.1//EN" "http://www.w3.org/Graphics/SVG/1.1/DTD/svg11.dtd">
<svg version="1.1" id="Layer_1" xmlns="http://www.w3.org/2000/svg" xmlns:xlink="http://www.w3.org/1999/xlink" x="0px" y="0px"
	 width="92px" height="92px" viewBox="0 0 92 92" enable-background="new 0 0 92 92" xml:space="preserve">
<path fill="#3998D5" d="M73.03,61.78c-1.53,0-2.84-1.16-2.98-2.72c-0.16-1.65,1.05-3.11,2.7-3.27C79.51,55.15,85,48.93,85,41.91
	c0-7.48-6-13.56-13.39-13.56c-0.65,0-1.31,0.05-1.97,0.15l-2.5,0.37l-0.8-2.39c-1.84-5.52-6.93-9.23-12.68-9.23
	c-1.23,0-2.46,0.17-3.65,0.52l-2.2,0.63l-1.19-1.95C44.17,12.41,39.91,10,35.24,10c-7.38,0-13.39,6.08-13.39,13.56
	c0,0.64,0.05,1.29,0.14,1.95l0.45,3.19l-3.22,0.22C12.37,29.4,7,35.22,7,42.19c0,7.02,5.5,13.11,12.26,13.58
	c1.65,0.12,2.9,1.55,2.78,3.2s-1.54,2.9-3.2,2.78C8.83,61.06,1,52.47,1,42.19c0-9.08,6.32-16.84,14.85-18.81
	C15.95,12.68,24.61,4,35.24,4c6.05,0,11.61,2.77,15.27,7.51c1.05-0.17,2.1-0.26,3.16-0.26c7.54,0,14.29,4.38,17.48,11.11
	c0.15,0,0.31-0.01,0.46-0.01C82.3,22.35,91,31.12,91,41.91c0,10.2-7.77,18.92-17.68,19.86C73.22,61.78,73.13,61.78,73.03,61.78z"/>
<path fill="#3998D5" d="M66.5,69.99H26.49c-0.82,0-1.49-0.67-1.49-1.51V42.52c0-0.83,0.67-1.51,1.49-1.51H66.5
	c0.82,0,1.49,0.67,1.49,1.51v25.97C68,69.32,67.33,69.99,66.5,69.99z M66,43H27v24h39V43z M40,61h-3v-4h3V61z M45,61h-3v-6h3V61z
	 M50,61h-3v-9h3V61z M55,61h-3V49h3V61z M31.75,77H42v-3c0-0.55,0.45-1,1-1h7c0.55,0,1,0.45,1,1v3h10.25c0.41,0,0.75,0.34,0.75,0.75
	v2.5c0,0.41-0.34,0.75-0.75,0.75H50h-7H31.75C31.34,81,31,80.66,31,80.25v-2.5C31,77.34,31.34,77,31.75,77z"/>
</svg>
