<?xml version="1.0" encoding="utf-8"?>
<!-- Generator: Adobe Illustrator 19.1.0, SVG Export Plug-In . SVG Version: 6.00 Build 0)  -->
<svg version="1.1" id="Layer_1" xmlns="http://www.w3.org/2000/svg" xmlns:xlink="http://www.w3.org/1999/xlink" x="0px" y="0px"
	 viewBox="0 0 92 92" enable-background="new 0 0 92 92" xml:space="preserve">
<g>
	<path fill="#3998D5" d="M73.03,61.78c-1.53,0-2.84-1.16-2.98-2.72c-0.16-1.65,1.05-3.11,2.7-3.27C79.51,55.15,85,48.93,85,41.91
		c0-7.48-6-13.56-13.39-13.56c-0.65,0-1.31,0.05-1.97,0.15l-2.5,0.37l-0.8-2.39c-1.84-5.52-6.93-9.23-12.68-9.23
		c-1.23,0-2.46,0.17-3.65,0.52l-2.2,0.63l-1.19-1.95C44.17,12.41,39.91,10,35.24,10c-7.38,0-13.39,6.08-13.39,13.56
		c0,0.64,0.05,1.29,0.14,1.95l0.45,3.19l-3.22,0.22C12.37,29.4,7,35.22,7,42.19c0,7.02,5.5,13.11,12.26,13.58
		c1.65,0.12,2.9,1.55,2.78,3.2s-1.54,2.9-3.2,2.78C8.83,61.06,1,52.47,1,42.19c0-9.08,6.32-16.84,14.85-18.81
		C15.95,12.68,24.61,4,35.24,4c6.05,0,11.61,2.77,15.27,7.51c1.05-0.17,2.1-0.26,3.16-0.26c7.54,0,14.29,4.38,17.48,11.11
		c0.15,0,0.31-0.01,0.46-0.01C82.3,22.35,91,31.12,91,41.91c0,10.2-7.77,18.92-17.68,19.86C73.22,61.78,73.13,61.78,73.03,61.78z"/>
</g>
<path fill-rule="evenodd" clip-rule="evenodd" fill="#3998D5" d="M62.97,61.08c0,0,0,0.01,0,0.02l-2.05,2.36l-1.03,1.2l-0.22-0.26
	l-2.19-2.49c0-0.01,0-0.03,0-0.04l-2.66-3.08h2.37c-1-4.39-4.41-7.85-8.75-8.85l2.89-2.72l-1.16-1.05l-0.01,0l-2.16-1.95
	c7.58,0.97,13.59,6.95,14.74,14.56h2.2L62.97,61.08L62.97,61.08z M46.32,49.63c-0.01,0-0.03,0-0.04,0l-3.04,2.7v-2.41
	c-4.33,1.01-7.74,4.47-8.72,8.88l-2.68-2.93l-1.04,1.17l0.01,0.01l-1.92,2.2c0-0.01,0-0.02,0-0.03c0.04-0.29,0.08-0.57,0.13-0.85
	c0.04-0.23,0.08-0.46,0.13-0.69c0.07-0.33,0.16-0.65,0.25-0.97c0.08-0.3,0.17-0.59,0.27-0.88c0.1-0.3,0.2-0.6,0.32-0.89
	c0.09-0.24,0.2-0.47,0.3-0.7c0.1-0.21,0.19-0.42,0.3-0.63c0.12-0.24,0.24-0.48,0.37-0.71c0.12-0.22,0.26-0.43,0.39-0.65
	c2.44-3.97,6.4-6.87,11.07-7.84c0.27-0.06,0.55-0.09,0.83-0.13v-2.23l2.28,2.02c0,0,0.01,0,0.01,0l3.5,3.12L46.32,49.63L46.32,49.63
	z M31.83,58.21l2.4,2.74c0,0.01,0,0.03,0,0.04l2.66,3.09h-2.38c1,4.4,4.41,7.85,8.75,8.85l-2.89,2.72l1.16,1.05l0.01,0l2.16,1.95
	c-3.43-0.44-6.54-1.9-9.03-4.08c-3.01-2.64-5.09-6.32-5.72-10.49h-2.2l1.99-2.31c0,0,0-0.01,0-0.01L31.83,58.21L31.83,58.21z
	 M43.74,76.6l-1.05-0.93l0.18-0.16l2.53-2.28c0.01,0,0.03,0,0.04,0l3.05-2.7v2.41c4.33-1.01,7.74-4.47,8.72-8.87l2.68,2.93
	l1.04-1.17l0-0.01l1.91-2.19c-0.05,0.41-0.11,0.83-0.19,1.23c-0.01,0.04-0.01,0.08-0.02,0.12c-0.23,1.1-0.55,2.15-0.97,3.16
	c-0.02,0.05-0.04,0.1-0.06,0.15c-0.19,0.45-0.4,0.89-0.63,1.32c-0.03,0.05-0.06,0.11-0.09,0.17c-0.25,0.47-0.52,0.93-0.82,1.37
	c-0.09,0.14-0.2,0.26-0.3,0.39c-0.26,0.37-0.52,0.73-0.81,1.07c-0.17,0.2-0.35,0.39-0.52,0.59c-0.25,0.27-0.5,0.54-0.77,0.8
	c-0.2,0.19-0.41,0.38-0.62,0.57c-0.26,0.23-0.53,0.45-0.81,0.66c-0.23,0.18-0.45,0.35-0.68,0.52c-0.38,0.26-0.77,0.51-1.17,0.74
	c-0.23,0.13-0.45,0.26-0.69,0.38c-0.44,0.23-0.88,0.45-1.34,0.64c-0.24,0.1-0.49,0.19-0.74,0.27c-0.36,0.13-0.71,0.25-1.08,0.36
	c-0.27,0.08-0.53,0.15-0.81,0.21c-0.38,0.09-0.76,0.16-1.14,0.22c-0.03,0.01-0.07,0.01-0.11,0.02v2.23l-2.28-2.02c0,0-0.01,0-0.01,0
	L43.74,76.6L43.74,76.6z"/>
</svg>
