<?xml version="1.0" encoding="utf-8"?><!-- Generator: Adobe Illustrator 21.0.2, SVG Export Plug-In . SVG Version: 6.00 Build 0)  --><svg version="1.1" id="Layer_1" xmlns="http://www.w3.org/2000/svg" xmlns:xlink="http://www.w3.org/1999/xlink" x="0px" y="0px"	 viewBox="0 0 92 92" style="enable-background:new 0 0 92 92;" xml:space="preserve"><style type="text/css">	.st0{fill:#3998D5;}	.st1{fill-rule:evenodd;clip-rule:evenodd;fill:#3998D5;}</style><g>	<g>		<path class="st0" d="M73,61.8c-1.5,0-2.8-1.2-3-2.7c-0.2-1.6,1.1-3.1,2.7-3.3C79.5,55.2,85,48.9,85,41.9c0-7.5-6-13.6-13.4-13.6			c-0.7,0-1.3,0-2,0.1l-2.5,0.4l-0.8-2.4c-1.8-5.5-6.9-9.2-12.7-9.2c-1.2,0-2.5,0.2-3.7,0.5l-2.2,0.6l-1.2-2			c-2.5-4-6.7-6.4-11.4-6.4c-7.4,0-13.4,6.1-13.4,13.6c0,0.6,0,1.3,0.1,1.9l0.5,3.2l-3.2,0.2C12.4,29.4,7,35.2,7,42.2			c0,7,5.5,13.1,12.3,13.6c1.7,0.1,2.9,1.5,2.8,3.2s-1.5,2.9-3.2,2.8C8.8,61.1,1,52.5,1,42.2c0-9.1,6.3-16.8,14.9-18.8			C15.9,12.7,24.6,4,35.2,4c6,0,11.6,2.8,15.3,7.5c1-0.2,2.1-0.3,3.2-0.3c7.5,0,14.3,4.4,17.5,11.1c0.2,0,0.3,0,0.5,0			c10.7,0,19.4,8.8,19.4,19.6c0,10.2-7.8,18.9-17.7,19.9C73.2,61.8,73.1,61.8,73,61.8z"/>	</g>	<path class="st1" d="M60,62.4H33c-1.1,0-2-0.9-2-2v-6c0-1.1,0.9-2,2-2H60c1.1,0,2,0.9,2,2v6C62,61.5,61.1,62.4,60,62.4L60,62.4z		 M58,55.4c-1.1,0-2,0.9-2,2c0,1.1,0.9,2,2,2c1.1,0,2-0.9,2-2C60,56.3,59.1,55.4,58,55.4L58,55.4z"/>	<path class="st1" d="M60,74.3H33c-1.1,0-2-0.9-2-2v-6c0-1.1,0.9-2,2-2H60c1.1,0,2,0.9,2,2v6C62,73.4,61.1,74.3,60,74.3L60,74.3z		 M58,67.4c-1.1,0-2,0.9-2,2c0,1.1,0.9,2,2,2c1.1,0,2-0.9,2-2C60,68.2,59.1,67.4,58,67.4L58,67.4z"/>	<path class="st1" d="M60,86.3H33c-1.1,0-2-0.9-2-2v-6c0-1.1,0.9-2,2-2H60c1.1,0,2,0.9,2,2v6C62,85.4,61.1,86.3,60,86.3L60,86.3z		 M58,79.3c-1.1,0-2,0.9-2,2c0,1.1,0.9,2,2,2c1.1,0,2-0.9,2-2C60,80.2,59.1,79.3,58,79.3L58,79.3z"/>	<path class="st1" d="M46.5,45.4c1.4,0,2.5,1.1,2.5,2.5c0,1.4-1.1,2.5-2.5,2.5c-1.4,0-2.5-1.1-2.5-2.5C44,46.5,45.1,45.4,46.5,45.4		L46.5,45.4z"/>	<path class="st1" d="M46.5,38.4c1.4,0,2.5,1.1,2.5,2.5c0,1.4-1.1,2.5-2.5,2.5c-1.4,0-2.5-1.1-2.5-2.5C44,39.5,45.1,38.4,46.5,38.4		L46.5,38.4z"/>	<path class="st1" d="M46.5,31.4c1.4,0,2.5,1.1,2.5,2.5c0,1.4-1.1,2.5-2.5,2.5c-1.4,0-2.5-1.1-2.5-2.5C44,32.6,45.1,31.4,46.5,31.4		L46.5,31.4z"/></g></svg>