<?xml version="1.0" encoding="utf-8"?>
<!-- Generator: Adobe Illustrator 19.1.0, SVG Export Plug-In . SVG Version: 6.00 Build 0)  -->
<svg version="1.1" id="Layer_1" xmlns="http://www.w3.org/2000/svg" xmlns:xlink="http://www.w3.org/1999/xlink" x="0px" y="0px"
	 viewBox="0 0 92 92" enable-background="new 0 0 92 92" xml:space="preserve">
<g>
	<path fill="#3998D5" d="M73.03,61.78c-1.53,0-2.84-1.16-2.98-2.72c-0.16-1.65,1.05-3.11,2.7-3.27C79.51,55.15,85,48.93,85,41.91
		c0-7.48-6-13.56-13.39-13.56c-0.65,0-1.31,0.05-1.97,0.15l-2.5,0.37l-0.8-2.39c-1.84-5.52-6.93-9.23-12.68-9.23
		c-1.23,0-2.46,0.17-3.65,0.52l-2.2,0.63l-1.19-1.95C44.17,12.41,39.91,10,35.24,10c-7.38,0-13.39,6.08-13.39,13.56
		c0,0.64,0.05,1.29,0.14,1.95l0.45,3.19l-3.22,0.22C12.37,29.4,7,35.22,7,42.19c0,7.02,5.5,13.11,12.26,13.58
		c1.65,0.12,2.9,1.55,2.78,3.2s-1.54,2.9-3.2,2.78C8.83,61.06,1,52.47,1,42.19c0-9.08,6.32-16.84,14.85-18.81
		C15.95,12.68,24.61,4,35.24,4c6.05,0,11.61,2.77,15.27,7.51c1.05-0.17,2.1-0.26,3.16-0.26c7.54,0,14.29,4.38,17.48,11.11
		c0.15,0,0.31-0.01,0.46-0.01C82.3,22.35,91,31.12,91,41.91c0,10.2-7.77,18.92-17.68,19.86C73.22,61.78,73.13,61.78,73.03,61.78z"/>
</g>
<g>
	<path fill="#3998D5" d="M31,76h-1c-1.1,0-2-0.9-2-2V48c0-1.1,0.9-2,2-2h1c1.1,0,2,0.9,2,2v26C33,75.1,32.1,76,31,76L31,76z M62,76
		h-1c-1.1,0-2-0.9-2-2V48c0-1.1,0.9-2,2-2h1c1.1,0,2,0.9,2,2v26C64,75.1,63.11,76,62,76L62,76z M35,65V54h2v11H35L35,65z M39,65v-8
		h2v8H39L39,65z M43,65v-6h2v6H43L43,65z M47,65v-6h2v6H47L47,65z M51,65v-8h2v8H51L51,65z M64,76h-5c-0.55,0-1-0.45-1-1
		c0-0.55,0.45-1,1-1h5c0.55,0,1,0.45,1,1C65,75.55,64.55,76,64,76L64,76z M33,76h-5c-0.55,0-1-0.45-1-1c0-0.55,0.45-1,1-1h5
		c0.55,0,1,0.45,1,1C34,75.55,33.55,76,33,76L33,76z M55,65V54h2v11H55L55,65z M67,67H25c-0.55,0-1-0.45-1-1v-1c0-0.55,0.45-1,1-1
		h42c0.55,0,1,0.45,1,1v1C68,66.55,67.55,67,67,67L67,67z"/>
	<path fill="#3998D5" d="M25.66,53.8L25.66,53.8L25.66,53.8c0.04-0.06,3.87-3.2,5.21-5.24L30,48l-0.83,0.63
		c0.11,0.03,7.96,10.88,16.79,11.41c0.57,0.03,1.06-0.42,1.09-0.99c0.03-0.58-0.42-1.06-1-1.09c-7.17-0.18-15.18-10.59-15.21-10.59
		c-0.21-0.27-0.53-0.43-0.87-0.42c-0.34,0.01-0.65,0.19-0.84,0.48c-0.91,1.46-4.79,4.76-4.79,4.76l0,0l-0.01,0.01
		c-0.44,0.37-0.5,1.03-0.13,1.47C24.56,54.12,25.22,54.17,25.66,53.8L25.66,53.8L25.66,53.8z"/>
	<path fill="#3998D5" d="M67.68,52.21L67.68,52.21c-0.02,0-3.89-3.31-4.8-4.77c-0.18-0.29-0.5-0.47-0.84-0.48
		c-0.34-0.01-0.67,0.14-0.87,0.42c-0.01,0.06-8.04,10.4-15.21,10.59c-0.58,0.03-1.02,0.51-1,1.09c0.03,0.58,0.51,1.02,1.09,0.99
		c8.83-0.53,16.67-11.38,16.79-11.41L62,48l-0.88,0.56c1.34,2.04,5.17,5.19,5.21,5.23l0.01,0.01c0.44,0.37,1.1,0.31,1.47-0.13
		C68.18,53.23,68.12,52.58,67.68,52.21L67.68,52.21L67.68,52.21z"/>
</g>
</svg>
