<?xml version="1.0" encoding="utf-8"?>
<!-- Generator: Adobe Illustrator 19.1.0, SVG Export Plug-In . SVG Version: 6.00 Build 0)  -->
<svg version="1.1" id="Layer_1" xmlns="http://www.w3.org/2000/svg" xmlns:xlink="http://www.w3.org/1999/xlink" x="0px" y="0px"
	 viewBox="0 0 92 92" enable-background="new 0 0 92 92" xml:space="preserve">
<g>
	<path fill="#3998D5" d="M73,61.8c-1.5,0-2.8-1.2-3-2.7c-0.2-1.6,1.1-3.1,2.7-3.3C79.5,55.2,85,48.9,85,41.9c0-7.5-6-13.6-13.4-13.6
		c-0.7,0-1.3,0-2,0.1l-2.5,0.4l-0.8-2.4c-1.8-5.5-6.9-9.2-12.7-9.2c-1.2,0-2.5,0.2-3.7,0.5l-2.2,0.6l-1.2-2c-2.5-4-6.7-6.4-11.4-6.4
		c-7.4,0-13.4,6.1-13.4,13.6c0,0.6,0,1.3,0.1,1.9l0.5,3.2l-3.2,0.2C12.4,29.4,7,35.2,7,42.2c0,7,5.5,13.1,12.3,13.6
		c1.7,0.1,2.9,1.5,2.8,3.2s-1.5,2.9-3.2,2.8C8.8,61.1,1,52.5,1,42.2c0-9.1,6.3-16.8,14.9-18.8C15.9,12.7,24.6,4,35.2,4
		c6,0,11.6,2.8,15.3,7.5c1-0.2,2.1-0.3,3.2-0.3c7.5,0,14.3,4.4,17.5,11.1c0.2,0,0.3,0,0.5,0c10.7,0,19.4,8.8,19.4,19.6
		c0,10.2-7.8,18.9-17.7,19.9C73.2,61.8,73.1,61.8,73,61.8z"/>
</g>
<g>
	<g>
		<defs>
			<path id="SVGID_1_" d="M47.1,84.8C24.3,73.6,27.1,42.9,27.1,42.9c14.9,0,19.9-8,19.9-8s5,8,19.8,8C66.9,42.9,69.7,73.6,47.1,84.8
				L47.1,84.8z M47,45.9c-2.2,0-4,1.8-4,4c0,2.2,1.8,4,4,4c2.2,0,4-1.8,4-4C51,47.6,49.3,45.9,47,45.9L47,45.9z M56,56.8
				c0-0.5-0.4-1-1-1h-5l-3,6l-3-6h-5c-0.5,0-1,0.4-1,1v12c0,0.5,0.4,1,1,1h16c0.5,0,1-0.4,1-1V56.8L56,56.8z"/>
		</defs>
		<use xlink:href="#SVGID_1_"  overflow="visible" fill-rule="evenodd" clip-rule="evenodd" fill="#3998D5"/>
		<clipPath id="SVGID_2_">
			<use xlink:href="#SVGID_1_"  overflow="visible"/>
		</clipPath>
	</g>
</g>
</svg>
