<svg xmlns="http://www.w3.org/2000/svg" width="92" height="92" viewBox="0 0 92 92">
  <g fill="#3998D5" fill-rule="evenodd" transform="translate(1)">
    <circle cx="68.958" cy="12.458" r="11.5"/>
    <rect width="8.625" height="8.625" x="74.708" y="34.5" transform="rotate(31 79.02 38.812)"/>
    <circle cx="80.458" cy="64.208" r="8.625"/>
    <circle cx="9.542" cy="20.125" r="8.625"/>
    <rect width="3.833" height="29.708" x="61.96" y="5.574" transform="rotate(31 63.877 20.428)"/>
    <circle cx="19.604" cy="51.271" r="4.313"/>
    <circle cx="65.125" cy="54.625" r="1.917"/>
    <circle cx="20.083" cy="27.792" r="1.917"/>
    <circle cx="69.917" cy="57.5" r="1.917"/>
    <circle cx="26.792" cy="31.625" r="1.917"/>
    <circle cx="32.542" cy="35.458" r="1.917"/>
    <path fill-rule="nonzero" d="M48.8333333,55.3095238 C54.5041142,55.3095238 59.1011905,50.7124476 59.1011905,45.0416667 C59.1011905,39.3708858 54.5041142,34.7738095 48.8333333,34.7738095 C43.1625524,34.7738095 38.5654762,39.3708858 38.5654762,45.0416667 C38.5654762,50.7124476 43.1625524,55.3095238 48.8333333,55.3095238 Z M48.8333333,59.4166667 C40.8942401,59.4166667 34.4583333,52.9807599 34.4583333,45.0416667 C34.4583333,37.1025734 40.8942401,30.6666667 48.8333333,30.6666667 C56.7724266,30.6666667 63.2083333,37.1025734 63.2083333,45.0416667 C63.2083333,52.9807599 56.7724266,59.4166667 48.8333333,59.4166667 Z"/>
    <rect width="19.167" height="19.167" x="19.817" y="67.775" transform="rotate(31 29.4 77.359)"/>
    <rect width="3.833" height="27.792" x="33.675" y="53.627" transform="rotate(31 35.591 67.523)"/>
  </g>
</svg>
