<?xml version="1.0" encoding="utf-8"?>
<!-- Generator: Adobe Illustrator 19.1.0, SVG Export Plug-In . SVG Version: 6.00 Build 0)  -->
<svg version="1.1" id="Layer_1" xmlns="http://www.w3.org/2000/svg" xmlns:xlink="http://www.w3.org/1999/xlink" x="0px" y="0px"
	 viewBox="0 0 92 92" enable-background="new 0 0 92 92" xml:space="preserve">
<g>
	<path fill="#3998D5" d="M73.03,61.78c-1.53,0-2.84-1.16-2.98-2.72c-0.16-1.65,1.05-3.11,2.7-3.27C79.51,55.15,85,48.93,85,41.91
		c0-7.48-6-13.56-13.39-13.56c-0.65,0-1.31,0.05-1.97,0.15l-2.5,0.37l-0.8-2.39c-1.84-5.52-6.93-9.23-12.68-9.23
		c-1.23,0-2.46,0.17-3.65,0.52l-2.2,0.63l-1.19-1.95C44.17,12.41,39.91,10,35.24,10c-7.38,0-13.39,6.08-13.39,13.56
		c0,0.64,0.05,1.29,0.14,1.95l0.45,3.19l-3.22,0.22C12.37,29.4,7,35.22,7,42.19c0,7.02,5.5,13.11,12.26,13.58
		c1.65,0.12,2.9,1.55,2.78,3.2s-1.54,2.9-3.2,2.78C8.83,61.06,1,52.47,1,42.19c0-9.08,6.32-16.84,14.85-18.81
		C15.95,12.68,24.61,4,35.24,4c6.05,0,11.61,2.77,15.27,7.51c1.05-0.17,2.1-0.26,3.16-0.26c7.54,0,14.29,4.38,17.48,11.11
		c0.15,0,0.31-0.01,0.46-0.01C82.3,22.35,91,31.12,91,41.91c0,10.2-7.77,18.92-17.68,19.86C73.22,61.78,73.13,61.78,73.03,61.78z"/>
</g>
<g>
	<g>
		<g>
			<g>
				<g>
					<path fill-rule="evenodd" clip-rule="evenodd" fill="#3998D5" d="M64.17,68.6c-1.41,0-2.7,0.49-3.72,1.3l-4.99-5.16
						c0.47-0.94,0.74-1.99,0.74-3.11c0-1.76-0.66-3.37-1.74-4.6l2.24-4.18c1.05,0.51,2.23,0.81,3.49,0.81c4.4,0,7.97-3.57,7.97-7.97
						c0-4.4-3.57-7.97-7.97-7.97c-4.4,0-7.97,3.57-7.97,7.97c0,2.06,0.79,3.93,2.07,5.34l-2.26,4.21c-0.86-0.38-1.8-0.59-2.8-0.59
						c-1.43,0-2.76,0.43-3.87,1.17l-7.5-6.17c0.26-0.61,0.41-1.27,0.41-1.97c0-2.75-2.23-4.98-4.98-4.98
						c-2.75,0-4.98,2.23-4.98,4.98c0,2.03,1.22,3.77,2.96,4.54l-1.47,6.5c-3.1,0.48-5.47,3.16-5.47,6.39c0,3.58,2.9,6.47,6.47,6.47
						c3.18,0,5.82-2.3,6.37-5.32l5.76-1.66c0.5,1.06,1.27,1.96,2.2,2.64l-0.93,4.4c-2.22,0.27-3.94,2.14-3.94,4.43
						c0,2.48,2.01,4.48,4.48,4.48s4.48-2.01,4.48-4.48c0-1.6-0.84-2.99-2.11-3.79l0.81-3.82c0.42,0.08,0.85,0.14,1.3,0.14
						c1.64,0,3.15-0.57,4.34-1.52l5.07,5.24c-0.28,0.7-0.44,1.46-0.44,2.26c0,3.3,2.68,5.98,5.98,5.98s5.98-2.68,5.98-5.98
						S67.47,68.6,64.17,68.6z M42.25,61.62c0,0.02,0,0.04,0,0.06l-5.27,1.52c-0.62-2.01-2.19-3.6-4.18-4.25l1.45-6.41
						c0.59-0.12,1.15-0.34,1.64-0.65l7.39,6.08C42.64,59.05,42.25,60.29,42.25,61.62z M49.23,65.61c-2.2,0-3.98-1.78-3.98-3.98
						c0-2.2,1.78-3.98,3.98-3.98c2.2,0,3.98,1.78,3.98,3.98C53.21,63.82,51.43,65.61,49.23,65.61z"/>
				</g>
			</g>
		</g>
	</g>
</g>
</svg>
