<?xml version="1.0" encoding="utf-8"?>
<!-- Generator: Adobe Illustrator 19.1.0, SVG Export Plug-In . SVG Version: 6.00 Build 0)  -->
<svg version="1.1" id="Layer_1" xmlns="http://www.w3.org/2000/svg" xmlns:xlink="http://www.w3.org/1999/xlink" x="0px" y="0px"
	 viewBox="0 0 92 92" enable-background="new 0 0 92 92" xml:space="preserve">
<g>
	<path fill="#3998D5" d="M73.03,61.78c-1.53,0-2.84-1.16-2.98-2.72c-0.16-1.65,1.05-3.11,2.7-3.27C79.51,55.15,85,48.93,85,41.91
		c0-7.48-6-13.56-13.39-13.56c-0.65,0-1.31,0.05-1.97,0.15l-2.5,0.37l-0.8-2.39c-1.84-5.52-6.93-9.23-12.68-9.23
		c-1.23,0-2.46,0.17-3.65,0.52l-2.2,0.63l-1.19-1.95C44.17,12.41,39.91,10,35.24,10c-7.38,0-13.39,6.08-13.39,13.56
		c0,0.64,0.05,1.29,0.14,1.95l0.45,3.19l-3.22,0.22C12.37,29.4,7,35.22,7,42.19c0,7.02,5.5,13.11,12.26,13.58
		c1.65,0.12,2.9,1.55,2.78,3.2s-1.54,2.9-3.2,2.78C8.83,61.06,1,52.47,1,42.19c0-9.08,6.32-16.84,14.85-18.81
		C15.95,12.68,24.61,4,35.24,4c6.05,0,11.61,2.77,15.27,7.51c1.05-0.17,2.1-0.26,3.16-0.26c7.54,0,14.29,4.38,17.48,11.11
		c0.15,0,0.31-0.01,0.46-0.01C82.3,22.35,91,31.12,91,41.91c0,10.2-7.77,18.92-17.68,19.86C73.22,61.78,73.13,61.78,73.03,61.78z"/>
</g>
<g>
	<path fill="#3998D5" d="M46.84,49.93c-1.54,1.14-2.85,2.59-3.03,2.83c-3.33,3.73-0.25,7.23-0.01,7.58c1.43,2.7,2.89,4.81,2.89,4.81
		s-10-5.36-8.15-11.05c0.55-2.4,4.83-5.67,5.55-6.4c7.45-5.61,5.23-11.89,5.23-11.89C56.45,41.95,47.27,49.55,46.84,49.93
		L46.84,49.93z"/>
	<path fill="#3998D5" d="M52.12,50.8c-4.38,3.3-2.49,5.9-2.39,5.99c0,0,1.49,2.32,1.65,2.53c2.11,4.51-4.22,6.6-4.7,6.72
		c2.82-2.62,0.15-5.33,0.08-5.47c-0.55-0.51-1.4-1.95-1.47-2.16c-3.82-9.11,13.04-12.28,13.04-12.28S52.44,50.57,52.12,50.8
		L52.12,50.8z"/>
	<path fill="#3998D5" d="M44.43,66.58c3.2-0.25,9.17-0.34,11.68-1c-0.17,0.21-1.33,1.39-1.33,1.39s-3.19,2.79-19.63,1.89
		c-0.55-0.07-7.9-1.98-2.43-4c0.34-0.17,5.08-1.68,9.37-0.88C42.08,63.96,27.88,67.08,44.43,66.58L44.43,66.58z"/>
	<path fill="#3998D5" d="M44.46,74.56c-0.55-0.07-9.51-0.78-10.3-2.97c-0.03-0.24,1.67-1.76,3.7-2.18c0,0-2.93,3.1,14.37,0.85
		c0.34,0.28,2.03,2.05,2.03,2.05C53.91,72.38,50.51,74.31,44.46,74.56L44.46,74.56z"/>
	<path fill="#3998D5" d="M44.01,79.77c-0.45-0.03-8.45-0.87-8.17-3.38c0.17-0.49,1.36-1.6,3.57-1.71c0,0-3.13,1.52,4.54,1.52
		c0.24,0,3.68,0.02,7.22-0.78c0.27,0.17,2.27,2.12,2.58,2.16C53.57,77.83,49.38,79.6,44.01,79.77L44.01,79.77z"/>
	<path fill="#3998D5" d="M61.2,81.03c-0.31,0.28-3.33,2.84-16.43,3.29c-0.62-0.07-16.31-0.1-17.82-2.38
		c-0.21-0.52-0.16-1.52,3.28-3.33c0.34-0.14,4.86-0.62,5.93,0.21c0,0-3.59,0.57-5,1.53c-0.03,0.24-0.65,0.29,2.85,0.81
		c0.48,0.07,11.17,1.74,23.41-0.49c0.28-0.07,3.91-0.33,2.7-1.93C60.4,78.84,62.45,79.55,61.2,81.03L61.2,81.03z"/>
	<path fill="#3998D5" d="M48.21,87.31c-0.31,0-13.48,0.19-14.47-3.08c0,0,21.16,2.72,29.64-2.98
		C63.34,81.63,65.11,86.85,48.21,87.31L48.21,87.31z"/>
	<path fill="#3998D5" d="M54.38,73.92c0,0,0.06-0.23,0.17-0.3c5.78-4.04,5.87-6.25,5.85-6.55c-0.72-2.7-4.65-2.67-4.65-2.67
		s0.36-0.39,0.49-0.47c5.18-3.17,7.61,2.31,7.74,2.82C64.14,73.1,54.38,73.92,54.38,73.92L54.38,73.92z"/>
</g>
</svg>
