<svg xmlns="http://www.w3.org/2000/svg" width="32" height="32" viewBox="0 0 32 32">
  <path fill="#3998D5" fill-rule="evenodd" d="M16,32 C7.16,32 0,24.84 0,16 C0,7.16 7.16,0 16,0 C24.84,0 32,7.16 32,16 C32,24.84 24.84,32 16,32 L16,32 Z M16,4 C9.37,4 4,9.37 4,16 C4,22.63 9.37,28 16,28 C22.63,28 28,22.63 28,16 C28,9.37 22.63,4 16,4 L16,4 Z M22.34,20.87 C21.72,21.16 20.93,20.99 20.57,20.49 L15.95,14.13 L11.43,20.47 C11.07,20.97 10.28,21.15 9.66,20.86 C9.04,20.57 8.83,19.93 9.18,19.42 L14.81,11.53 C15.17,11.03 15.96,10.86 16.58,11.15 C16.81,11.26 16.96,11.42 17.07,11.6 C17.11,11.64 17.16,11.67 17.19,11.71 L22.82,19.47 C23.18,19.95 22.96,20.58 22.34,20.87 L22.34,20.87 Z"/>
</svg>
