<?xml version="1.0" encoding="utf-8"?>
<!-- Generator: Adobe Illustrator 19.1.0, SVG Export Plug-In . SVG Version: 6.00 Build 0)  -->
<svg version="1.1" id="Layer_1" xmlns="http://www.w3.org/2000/svg" xmlns:xlink="http://www.w3.org/1999/xlink" x="0px" y="0px"
	 viewBox="0 0 92 92" enable-background="new 0 0 92 92" xml:space="preserve">
<g>
	<path fill="#3998D5" d="M73.03,61.78c-1.53,0-2.84-1.16-2.98-2.72c-0.16-1.65,1.05-3.11,2.7-3.27C79.51,55.15,85,48.93,85,41.91
		c0-7.48-6-13.56-13.39-13.56c-0.65,0-1.31,0.05-1.97,0.15l-2.5,0.37l-0.8-2.39c-1.84-5.52-6.93-9.23-12.68-9.23
		c-1.23,0-2.46,0.17-3.65,0.52l-2.2,0.63l-1.19-1.95C44.17,12.41,39.91,10,35.24,10c-7.38,0-13.39,6.08-13.39,13.56
		c0,0.64,0.05,1.29,0.14,1.95l0.45,3.19l-3.22,0.22C12.37,29.4,7,35.22,7,42.19c0,7.02,5.5,13.11,12.26,13.58
		c1.65,0.12,2.9,1.55,2.78,3.2s-1.54,2.9-3.2,2.78C8.83,61.06,1,52.47,1,42.19c0-9.08,6.32-16.84,14.85-18.81
		C15.95,12.68,24.61,4,35.24,4c6.05,0,11.61,2.77,15.27,7.51c1.05-0.17,2.1-0.26,3.16-0.26c7.54,0,14.29,4.38,17.48,11.11
		c0.15,0,0.31-0.01,0.46-0.01C82.3,22.35,91,31.12,91,41.91c0,10.2-7.77,18.92-17.68,19.86C73.22,61.78,73.13,61.78,73.03,61.78z"/>
</g>
<g>
	<path fill="#3998D5" d="M53,54.13V54c0-0.78-1.22-2-2-2H29c-0.78,0-2,1.22-2,2v0.08l13.15,7.54L53,54.24V54.13z"/>
	<polygon fill="#3998D5" points="53,55.84 42.58,62 53,62 	"/>
	<path fill="#3998D5" d="M27.14,68.51C27.48,69.22,28.37,70,29,70h10v-6c0-0.34,0.24-0.76,0.56-1.13l-1.31-0.75L27.14,68.51z"/>
	<polygon fill="#3998D5" points="27,56 27,56 27,66.99 36.87,61.49 	"/>
	<polygon fill="#3998D5" points="41,67.82 41,78.27 50.1,73.05 	"/>
	<path fill="#3998D5" d="M63,64H43c-0.78,0-2,1.22-2,2v0.22l12.39,7.11L65,66.67V66C65,65.22,63.78,64,63,64z"/>
	<path fill="#3998D5" d="M54.1,74.52l-0.72,0.41l-0.72-0.41l-1.18-0.68L41,79.87V80c0,0.78,1.22,2,2,2h20c0.78,0,2-1.22,2-2v-0.58
		l-9.72-5.58L54.1,74.52z"/>
	<polygon fill="#3998D5" points="65,77.83 65,68.26 56.67,73.05 	"/>
</g>
</svg>
