<svg xmlns="http://www.w3.org/2000/svg" width="92" height="92" viewBox="0 0 92 92">
  <g fill="#3998D5" fill-rule="evenodd" transform="translate(5)">
    <path d="M73.5833333,0 C77.8175164,-1.17171084e-15 81.25,3.43248358 81.25,7.66666667 L81.25,84.3333333 C81.25,88.5675164 77.8175164,92 73.5833333,92 L23.6850282,92 L24.7245763,92 L27.0635593,88.1666667 L73.5183616,88.1666667 C75.6354531,88.1666667 77.3516949,86.4504249 77.3516949,84.3333333 L77.3516949,7.66666667 C77.3516949,5.54957513 75.6354531,3.83333333 73.5183616,3.83333333 L44.8604049,3.83333333 L47.0261299,3.01078878e-15 L73.5833333,0 Z"/>
    <circle cx="50.583" cy="76.667" r="4.792"/>
    <path d="M13.2083333,56.0858056 C13.1480031,56.0165511 13.0897349,55.9450913 13.0336568,55.8714888 L1.61395293,40.9078049 C0.462015691,39.3974446 0.462015691,37.3024905 1.61395293,35.7921302 L13.0336568,21.784863 C13.8310044,20.740261 15.0711099,20.125 16.3859667,20.125 L45.4892044,20.125 C46.8040612,20.125 48.0441667,20.740261 48.8415142,21.784863 L60.2612182,35.7921302 C61.4150721,37.3024905 61.4150721,39.3974446 60.2612182,40.9078049 L48.8415142,55.8714888 C48.0441667,56.9180074 46.8040612,57.5313517 45.4892044,57.5313517 L24.4217933,57.5313517 L13.2083333,65.7416667 L13.2083333,56.0858056 Z M21.3541667,42.1666667 C23.2066218,42.1666667 24.7083333,40.6649551 24.7083333,38.8125 C24.7083333,36.9600449 23.2066218,35.4583333 21.3541667,35.4583333 C19.5017116,35.4583333 18,36.9600449 18,38.8125 C18,40.6649551 19.5017116,42.1666667 21.3541667,42.1666667 Z M30.9375,42.1666667 C32.7899551,42.1666667 34.2916667,40.6649551 34.2916667,38.8125 C34.2916667,36.9600449 32.7899551,35.4583333 30.9375,35.4583333 C29.0850449,35.4583333 27.5833333,36.9600449 27.5833333,38.8125 C27.5833333,40.6649551 29.0850449,42.1666667 30.9375,42.1666667 Z M40.5208333,42.1666667 C42.3732884,42.1666667 43.875,40.6649551 43.875,38.8125 C43.875,36.9600449 42.3732884,35.4583333 40.5208333,35.4583333 C38.6683782,35.4583333 37.1666667,36.9600449 37.1666667,38.8125 C37.1666667,40.6649551 38.6683782,42.1666667 40.5208333,42.1666667 Z"/>
  </g>
</svg>
