<?xml version="1.0" encoding="utf-8"?>
<!-- Generator: Adobe Illustrator 19.1.0, SVG Export Plug-In . SVG Version: 6.00 Build 0)  -->
<svg version="1.1" id="Layer_1" xmlns="http://www.w3.org/2000/svg" xmlns:xlink="http://www.w3.org/1999/xlink" x="0px" y="0px"
	 viewBox="0 0 92 92" style="enable-background:new 0 0 92 92;" xml:space="preserve">
<style type="text/css">
	.st0{fill:#3998D5;}
</style>
<g>
	<path class="st0" d="M73,61.8c-1.5,0-2.8-1.2-3-2.7c-0.2-1.6,1.1-3.1,2.7-3.3C79.5,55.2,85,48.9,85,41.9c0-7.5-6-13.6-13.4-13.6
		c-0.7,0-1.3,0-2,0.1l-2.5,0.4l-0.8-2.4c-1.8-5.5-6.9-9.2-12.7-9.2c-1.2,0-2.5,0.2-3.7,0.5l-2.2,0.6l-1.2-2c-2.5-4-6.7-6.4-11.4-6.4
		c-7.4,0-13.4,6.1-13.4,13.6c0,0.6,0,1.3,0.1,1.9l0.5,3.2l-3.2,0.2C12.4,29.4,7,35.2,7,42.2c0,7,5.5,13.1,12.3,13.6
		c1.7,0.1,2.9,1.5,2.8,3.2s-1.5,2.9-3.2,2.8C8.8,61.1,1,52.5,1,42.2c0-9.1,6.3-16.8,14.9-18.8C15.9,12.7,24.6,4,35.2,4
		c6,0,11.6,2.8,15.3,7.5c1-0.2,2.1-0.3,3.2-0.3c7.5,0,14.3,4.4,17.5,11.1c0.2,0,0.3,0,0.5,0c10.7,0,19.4,8.8,19.4,19.6
		c0,10.2-7.8,18.9-17.7,19.9C73.2,61.8,73.1,61.8,73,61.8z"/>
</g>
<g>
	<defs>
		<path id="SVGID_1_" d="M71,82.2c-0.7-0.5-1.4-1-2.1-1.5c-1.2-0.7-2.6-1.2-3.8-1.9c-0.7-0.4-1.3-0.9-2-1.4
			c-0.6-0.4-1.3-1.3-1.6-1.9c-0.2-0.3-0.3-0.7-0.5-1c0.1-0.6,0.8-0.6,1.3-0.8c1.6-0.7,3.6-0.9,6.1-0.9c-0.1-0.6-1.7-1.4-2.2-1.8
			c-1-0.7-2.1-1.5-3.1-2.1c-0.6-0.3-1.5-0.6-2.2-0.9c-0.8-0.3-2.7-0.7-3.2-1.3c-0.9-1.2-1.6-2.7-2.2-4.2c-0.7-1.5-1.5-3.1-2.1-4.6
			c-0.3-0.7-0.5-1.4-0.9-2.1c-2.3-4.4-5.7-8.1-9.8-10.7c-1.3-0.8-2.8-1.6-4.5-2.2c-0.9-0.3-2.1-0.1-3.1-0.3c-0.2,0-0.4,0-0.7,0
			c-0.6-0.2-1-0.7-1.5-1.1c-1-0.7-1.9-1.1-3.1-1.6c-0.4-0.2-1.6-0.6-2-0.3c-0.3,0.1-0.4,0.2-0.4,0.4c-0.3,0.4,0,0.9,0.1,1.3
			c0.5,1,1.1,1.6,1.7,2.4c0.5,0.7,1.2,1.6,1.6,2.4c0.8,1.7,1.2,3.7,1.9,5.4c0.3,0.7,0.7,1.4,1.1,2c0.3,0.5,1,0.8,1.2,1.4
			c0.4,0.6-0.6,2.7-0.8,3.3c-0.8,2.6-0.7,6.1,0.3,8.3c0.4,0.9,0.7,1.9,1.7,2.2c0.1-0.1,0,0,0.1-0.1c0.2-1.7,0.3-3.4,0.9-4.7
			c0.3-0.8,1-1.4,1.5-2.1c0.3,0.2,0.3,0.7,0.5,1.1c0.4,1,0.8,2,1.3,3c1,2,2.2,3.9,3.5,5.7c0.4,0.6,1.1,1.3,1.6,1.9
			c0.3,0.2,0.5,0.3,0.7,0.6c0,0,0,0,0.1,0c0,0,0,0.1,0,0.1c-0.9-0.3-1.5-1.3-2.3-1.9c-1.4-1.1-3.1-2.7-4.1-4.2
			c-0.4-0.9-0.8-1.7-1.3-2.6c0,0,0,0,0-0.1c-0.2,0.3-0.1,0.5-0.2,0.9c-0.4,1.6-0.1,3.3-1.5,3.9c-1.6,0.7-2.8-1.1-3.3-1.8
			c-1.6-2.6-2-7-0.9-10.5c0.3-0.8,0.3-1.7,0.7-2.3c-0.1-0.6-0.5-0.7-0.8-1.1c-0.4-0.6-0.8-1.3-1.2-1.9c-0.7-1.3-1.1-2.8-1.6-4.2
			c-0.2-0.6-0.3-1.1-0.5-1.7c-0.4-0.8-1.1-1.6-1.6-2.3c-0.7-1-2.8-3-2-5.1c1.3-3.2,5.9-0.8,7.7,0.3c0.4,0.3,0.9,0.9,1.4,1.1
			c0.8,0,1.6,0.1,2.3,0.1c1.5,0.3,2.8,0.6,4,1.3c5.4,3.1,8.9,6.4,12.1,11.7c0.7,1.1,1,2.3,1.6,3.6c0.8,1.8,1.7,3.7,2.6,5.4
			c0.4,0.8,0.7,1.7,1.3,2.4c0.2,0.3,0.8,0.4,1.2,0.6c1,0.5,2.3,0.9,3.3,1.6c1.8,1.1,3.6,2.5,5.2,3.8c0.6,0.5,1,1.3,1.6,1.8
			c0,0.1,0,0.2,0,0.3c-0.5,0.2-1,0.3-1.5,0.4c-1.1,0.3-2.1,0.2-3.1,0.5c-0.7,0.2-1.5,0.4-2.2,0.5c0,0,0.1,0.1,0.1,0.1
			c0.4,1.2,2.6,2.1,3.6,2.8c1.2,0.9,2.3,1.9,3.3,3.1c0.3,0.3,0.6,0.6,0.9,0.9c0.2,0.3,0.3,0.7,0.5,1c0,0,0,0.1,0,0.1
			C71.6,82.8,71.3,82.4,71,82.2L71,82.2z M37,48.6C37,48.6,37,48.7,37,48.6c-0.3-0.4-0.5-0.9-0.8-1.4c-0.3-0.4-0.7-0.8-1-1.3
			c0,0,0,0-0.1,0c0,0,0-0.1,0-0.1c0.4-0.1,0.8-0.2,1.3-0.2c0.3,0.3,0.7,0.4,0.8,0.7c0.2,0.2,0.2,0.4,0.4,0.7
			C37.7,47.8,37.5,48.3,37,48.6L37,48.6z"/>
	</defs>
	<use xlink:href="#SVGID_1_"  style="overflow:visible;fill:#3998D5;"/>
	<clipPath id="SVGID_2_">
		<use xlink:href="#SVGID_1_"  style="overflow:visible;"/>
	</clipPath>
</g>
</svg>
