<?xml version="1.0" encoding="utf-8"?>
<!-- Generator: Adobe Illustrator 19.1.0, SVG Export Plug-In . SVG Version: 6.00 Build 0)  -->
<svg version="1.1" id="Layer_1" xmlns="http://www.w3.org/2000/svg" xmlns:xlink="http://www.w3.org/1999/xlink" x="0px" y="0px"
	 viewBox="0 0 92 92" style="enable-background:new 0 0 92 92;" xml:space="preserve">
<style type="text/css">
	.st0{fill:#3998D5;}
	.st1{fill-rule:evenodd;clip-rule:evenodd;fill:#3998D5;}
</style>
<g>
	<path class="st0" d="M73,61.8c-1.5,0-2.8-1.2-3-2.7c-0.2-1.6,1.1-3.1,2.7-3.3C79.5,55.2,85,48.9,85,41.9c0-7.5-6-13.6-13.4-13.6
		c-0.7,0-1.3,0-2,0.1l-2.5,0.4l-0.8-2.4c-1.8-5.5-6.9-9.2-12.7-9.2c-1.2,0-2.5,0.2-3.7,0.5l-2.2,0.6l-1.2-2c-2.5-4-6.7-6.4-11.4-6.4
		c-7.4,0-13.4,6.1-13.4,13.6c0,0.6,0,1.3,0.1,1.9l0.5,3.2l-3.2,0.2C12.4,29.4,7,35.2,7,42.2c0,7,5.5,13.1,12.3,13.6
		c1.7,0.1,2.9,1.5,2.8,3.2s-1.5,2.9-3.2,2.8C8.8,61.1,1,52.5,1,42.2c0-9.1,6.3-16.8,14.9-18.8C15.9,12.7,24.6,4,35.2,4
		c6,0,11.6,2.8,15.3,7.5c1-0.2,2.1-0.3,3.2-0.3c7.5,0,14.3,4.4,17.5,11.1c0.2,0,0.3,0,0.5,0c10.7,0,19.4,8.8,19.4,19.6
		c0,10.2-7.8,18.9-17.7,19.9C73.2,61.8,73.1,61.8,73,61.8z"/>
</g>
<g id="Shape_3_copy">
	<g>
		<path class="st1" d="M52.9,75.6l-1.5-0.3c-0.3-0.1-0.6-0.3-0.7-0.6c-0.1-0.4-0.3-0.9-0.5-1.3c-0.1-0.3-0.1-0.6,0.1-0.9l0.9-1.3
			c0.2-0.3,0.2-0.7-0.1-1l-0.7-0.7L49.7,69c-0.3-0.3-0.7-0.3-1-0.1l-1.2,0.9c-0.3,0.2-0.6,0.2-0.9,0.1c-0.4-0.2-0.8-0.4-1.2-0.5
			c-0.3-0.1-0.5-0.4-0.6-0.7l-0.3-1.5c-0.1-0.4-0.4-0.7-0.8-0.7h-2c-0.4,0-0.7,0.3-0.8,0.6l-0.3,1.5c-0.1,0.3-0.3,0.6-0.6,0.7
			c-0.5,0.1-0.9,0.3-1.3,0.5c-0.3,0.1-0.6,0.1-0.9-0.1l-1.2-0.9c-0.3-0.2-0.7-0.2-1,0.1l-0.7,0.7l-0.7,0.7c-0.3,0.3-0.3,0.7-0.1,1
			l0.9,1.3c0.2,0.3,0.2,0.6,0.1,0.9c-0.2,0.4-0.4,0.8-0.5,1.3c-0.1,0.3-0.4,0.5-0.7,0.6l-1.5,0.2c-0.4,0.1-0.6,0.4-0.7,0.8v2
			c0,0.4,0.3,0.7,0.6,0.8l1.5,0.3c0.3,0.1,0.6,0.3,0.7,0.6c0.1,0.4,0.3,0.9,0.5,1.3c0.1,0.3,0.1,0.6-0.1,0.9L34,83.3
			c-0.2,0.3-0.2,0.7,0.1,1l1.4,1.4c0.3,0.3,0.7,0.3,1,0.1l1.3-0.9c0.3-0.2,0.6-0.2,0.9-0.1c0.4,0.2,0.8,0.4,1.3,0.5
			c0.3,0.1,0.5,0.4,0.6,0.7l0.2,1.5c0.1,0.4,0.4,0.7,0.8,0.7h2c0.4,0,0.7-0.3,0.8-0.6l0.3-1.5c0.1-0.3,0.3-0.6,0.6-0.7
			c0.4-0.1,0.8-0.3,1.2-0.5c0.3-0.1,0.6-0.1,0.9,0.1l1.3,0.9c0.3,0.2,0.7,0.2,1-0.1l0.7-0.7l0.7-0.7c0.3-0.3,0.3-0.7,0.1-1l-0.9-1.2
			c-0.2-0.3-0.2-0.6,0-0.9c0.2-0.4,0.4-0.8,0.5-1.2c0.1-0.3,0.4-0.5,0.7-0.6l1.5-0.3c0.4-0.1,0.7-0.4,0.7-0.8v-2
			C53.5,76,53.2,75.7,52.9,75.6z M42.6,81.8c-2.5,0-4.5-2-4.5-4.5c0-2.5,2-4.5,4.4-4.5c2.5,0,4.5,2,4.5,4.5
			C47.1,79.8,45.1,81.8,42.6,81.8z M67.4,67.9l-1-0.3c-0.2-0.1-0.4-0.2-0.4-0.5c0-0.3-0.1-0.6-0.2-0.9c-0.1-0.2,0-0.4,0.1-0.6
			l0.7-0.8c0.2-0.2,0.2-0.5,0-0.7l-0.8-1.1c-0.2-0.2-0.4-0.3-0.7-0.2l-0.9,0.5c-0.2,0.1-0.4,0.1-0.6,0c-0.2-0.2-0.5-0.3-0.8-0.5
			c-0.2-0.1-0.3-0.3-0.3-0.5l0-1.1c0-0.3-0.2-0.5-0.5-0.5l-1.4-0.2c-0.3,0-0.5,0.1-0.6,0.4l-0.3,1c-0.1,0.2-0.2,0.4-0.5,0.4
			c-0.3,0-0.6,0.1-0.9,0.2c-0.2,0.1-0.4,0-0.6-0.1L57,61.7c-0.2-0.2-0.5-0.2-0.7,0l-1.1,0.8c-0.2,0.2-0.3,0.4-0.2,0.7l0.5,0.9
			c0.1,0.2,0.1,0.4,0,0.6c-0.2,0.3-0.3,0.5-0.5,0.8c-0.1,0.2-0.3,0.3-0.5,0.3l-1.1,0c-0.3,0-0.5,0.2-0.5,0.4L52.8,67l-0.1,0.7
			c0,0.3,0.1,0.5,0.4,0.6l1,0.3c0.2,0.1,0.4,0.2,0.4,0.5c0,0.3,0.1,0.6,0.2,0.9c0.1,0.2,0,0.4-0.1,0.6l-0.7,0.8
			c-0.2,0.2-0.2,0.5,0,0.7l0.4,0.6l0.4,0.6c0.2,0.2,0.4,0.3,0.7,0.2l0.9-0.5c0.2-0.1,0.4-0.1,0.6,0c0.3,0.2,0.5,0.3,0.8,0.5
			c0.2,0.1,0.3,0.3,0.3,0.5l0,1.1c0,0.3,0.2,0.5,0.5,0.5l0.7,0.1l0.7,0.1c0.3,0,0.5-0.1,0.6-0.4l0.3-1c0.1-0.2,0.2-0.4,0.5-0.4
			c0.3,0,0.6-0.1,0.9-0.2c0.2-0.1,0.4,0,0.6,0.1l0.8,0.7c0.2,0.2,0.5,0.2,0.7,0l0.6-0.4l0.6-0.4c0.2-0.2,0.3-0.4,0.2-0.7l-0.5-0.9
			c-0.1-0.2-0.1-0.4,0-0.6c0.2-0.2,0.3-0.5,0.5-0.8c0.1-0.2,0.3-0.3,0.5-0.3l1.1,0c0.3,0,0.5-0.2,0.5-0.5l0.1-0.7l0.1-0.7
			C67.8,68.3,67.6,68,67.4,67.9z M63.3,68.5c-0.2,1.7-1.8,2.9-3.5,2.7c-1.7-0.2-2.9-1.8-2.7-3.5c0.2-1.7,1.8-2.9,3.5-2.7
			C62.3,65.3,63.5,66.8,63.3,68.5z M34,59c0.4,0.3,0.6,0.8,0.5,1.3l-0.5,2.4c-0.1,0.6,0.2,1.2,0.8,1.4l1.5,0.6l1.5,0.6
			c0.6,0.2,1.2,0,1.5-0.5l1.2-2.1c0.3-0.4,0.7-0.7,1.2-0.7c0.7,0,1.4,0,2.1-0.1c0.5-0.1,1,0.2,1.3,0.6l1.4,2c0.3,0.5,1,0.7,1.5,0.4
			l1.5-0.7l1.5-0.7c0.6-0.3,0.8-0.9,0.7-1.4L51,59.8c-0.1-0.5,0-1,0.4-1.3c0.5-0.5,1-1,1.5-1.6c0.3-0.4,0.8-0.6,1.3-0.5l2.4,0.5
			c0.6,0.1,1.2-0.2,1.4-0.8l0.6-1.5l0.6-1.5c0.2-0.6,0-1.2-0.5-1.5l-2.1-1.2c-0.4-0.2-0.7-0.7-0.7-1.2c0-0.7,0-1.4-0.1-2.1
			c-0.1-0.5,0.2-1,0.6-1.3l2-1.4c0.5-0.3,0.7-1,0.4-1.5L58,41.6l-0.7-1.5c-0.3-0.6-0.9-0.8-1.4-0.7L53.6,40c-0.5,0.1-1,0-1.3-0.4
			c-0.5-0.6-1-1.1-1.6-1.5c-0.4-0.3-0.6-0.8-0.5-1.3l0.5-2.4c0.1-0.6-0.2-1.2-0.8-1.4l-1.5-0.6L46.9,32c-0.5-0.2-1.2,0-1.5,0.5
			l-1.2,2.1c-0.3,0.4-0.7,0.7-1.2,0.6c-0.7,0-1.4,0-2.1,0.1c-0.5,0.1-1-0.2-1.3-0.6l-1.4-2c-0.3-0.5-1-0.7-1.5-0.5L35.2,33l-1.4,0.7
			c-0.5,0.3-0.8,0.9-0.7,1.4l0.6,2.3c0.1,0.5,0,1-0.4,1.3c-0.5,0.5-1,1-1.5,1.6c-0.3,0.4-0.8,0.6-1.3,0.5l-2.4-0.5
			c-0.6-0.1-1.2,0.2-1.4,0.8l-0.6,1.5l-0.6,1.5c-0.2,0.5,0,1.2,0.5,1.5l2.1,1.2c0.4,0.3,0.7,0.7,0.6,1.2c0,0.7,0,1.4,0.1,2.1
			c0.1,0.5-0.2,1-0.6,1.3l-2,1.3c-0.5,0.3-0.7,1-0.4,1.5l0.7,1.5l0.7,1.5c0.3,0.5,0.9,0.8,1.4,0.7l2.3-0.6c0.5-0.1,1,0,1.3,0.4
			C33,58.1,33.5,58.6,34,59z M39.4,42.2c3.5-1.7,7.7-0.2,9.4,3.3c1.7,3.5,0.2,7.7-3.3,9.4c-3.5,1.7-7.7,0.2-9.4-3.3
			C34.3,48.1,35.8,43.9,39.4,42.2z"/>
	</g>
</g>
</svg>
